<svg width="499" height="499" viewBox="0 0 499 499" fill="none" xmlns="http://www.w3.org/2000/svg">
<path d="M470.559 261.865C470.703 259.369 471.32 257.191 472.41 255.331C473.498 253.491 474.941 252.092 476.74 251.134C478.558 250.178 480.615 249.766 482.911 249.899C485.227 250.033 487.223 250.68 488.899 251.839C490.575 252.998 491.847 254.554 492.716 256.507C493.583 258.481 493.944 260.715 493.8 263.211C493.655 265.707 493.038 267.875 491.95 269.715C490.862 271.555 489.419 272.954 487.62 273.912C485.822 274.869 483.765 275.281 481.448 275.147C479.152 275.014 477.156 274.367 475.461 273.207C473.785 272.048 472.513 270.492 471.644 268.539C470.776 266.585 470.414 264.36 470.559 261.865ZM473.104 262.012C472.99 263.989 473.26 265.727 473.914 267.228C474.588 268.729 475.581 269.919 476.892 270.796C478.204 271.673 479.778 272.165 481.615 272.272C483.472 272.379 485.102 272.073 486.506 271.353C487.91 270.633 489.024 269.566 489.847 268.151C490.67 266.736 491.139 265.04 491.254 263.064C491.368 261.087 491.098 259.349 490.444 257.848C489.79 256.348 488.808 255.149 487.497 254.252C486.186 253.374 484.602 252.882 482.745 252.774C480.908 252.668 479.287 252.975 477.883 253.695C476.478 254.435 475.354 255.511 474.511 256.925C473.688 258.34 473.219 260.035 473.104 262.012Z" fill="white"/>
<path d="M467.587 287.647C467.963 285.499 468.718 283.733 469.854 282.348C471.009 280.967 472.487 280.007 474.286 279.469C476.083 278.951 478.133 278.893 480.438 279.296C483.905 279.903 486.481 281.257 488.164 283.358C489.863 285.483 490.556 288.193 490.244 291.488C490.135 292.809 490.045 293.9 489.976 294.761C489.903 295.642 489.858 296.365 489.84 296.93C489.842 297.499 489.86 297.979 489.893 298.371C489.922 298.782 489.973 299.187 490.046 299.585L487.564 299.151C487.468 298.769 487.414 298.262 487.403 297.631C487.392 296.999 487.421 296.192 487.492 295.21C487.578 294.25 487.703 293.074 487.865 291.681C488.183 288.935 487.678 286.715 486.35 285.021C485.022 283.326 482.92 282.228 480.044 281.725L478.95 281.533L479.11 281.318C480.268 282.008 481.209 282.842 481.931 283.821C482.649 284.82 483.135 285.93 483.389 287.152C483.638 288.394 483.643 289.704 483.401 291.083C483.102 292.797 482.505 294.236 481.611 295.399C480.737 296.566 479.647 297.401 478.341 297.903C477.031 298.425 475.598 298.55 474.042 298.278C472.407 297.992 471.055 297.36 469.988 296.381C468.921 295.403 468.173 294.165 467.744 292.669C467.315 291.173 467.263 289.499 467.587 287.647ZM469.852 288.104C469.625 289.404 469.665 290.568 469.972 291.597C470.276 292.645 470.817 293.501 471.594 294.165C472.368 294.848 473.326 295.29 474.469 295.49C475.631 295.693 476.682 295.603 477.622 295.219C478.579 294.859 479.378 294.237 480.02 293.354C480.658 292.491 481.091 291.41 481.318 290.11C481.621 288.376 481.414 286.776 480.696 285.311C479.974 283.865 478.792 282.673 477.149 281.736C475.211 281.783 473.597 282.363 472.306 283.478C471.011 284.611 470.193 286.153 469.852 288.104Z" fill="white"/>
<path d="M466.872 319.535C465.64 318.963 464.652 318.116 463.906 316.994C463.155 315.892 462.68 314.617 462.482 313.17C462.283 311.724 462.402 310.22 462.837 308.66C463.343 306.849 464.146 305.35 465.245 304.162C466.365 302.979 467.67 302.17 469.162 301.736C470.668 301.325 472.259 301.354 473.935 301.822C475.61 302.29 476.977 303.086 478.033 304.212C479.103 305.362 479.801 306.73 480.127 308.316C480.452 309.902 480.362 311.6 479.857 313.411C479.421 314.971 478.744 316.319 477.825 317.454C476.925 318.594 475.869 319.441 474.655 319.995C473.436 320.568 472.142 320.778 470.773 320.624L471.539 317.879C472.968 317.967 474.229 317.54 475.322 316.599C476.43 315.683 477.209 314.416 477.661 312.798C478.026 311.488 478.086 310.269 477.84 309.142C477.589 308.033 477.067 307.078 476.273 306.275C475.499 305.477 474.467 304.898 473.176 304.538C471.886 304.178 470.693 304.136 469.599 304.411C468.504 304.687 467.562 305.234 466.773 306.052C465.998 306.895 465.428 307.971 465.062 309.281C464.605 310.918 464.613 312.416 465.085 313.773C465.553 315.149 466.404 316.155 467.638 316.79L466.872 319.535Z" fill="white"/>
<path d="M453.41 322.183C453.718 321.38 454.097 320.7 454.546 320.144C454.995 319.588 455.534 319.077 456.162 318.612L458.207 319.396C457.578 319.862 457.06 320.349 456.651 320.856C456.242 321.363 455.894 321.99 455.607 322.737C455.299 323.54 455.221 324.302 455.372 325.024C455.505 325.739 455.907 326.451 456.578 327.158L469.886 341.295L468.832 344.04L454.862 328.781C454.21 328.081 453.735 327.363 453.439 326.628C453.117 325.905 452.96 325.17 452.968 324.423C452.969 323.695 453.116 322.948 453.41 322.183ZM457.889 326.922L476.024 325.303L474.938 328.131L456.889 329.527L457.889 326.922Z" fill="white"/>
<path d="M444.737 359.742L438.817 356.756L439.925 354.56L443.835 356.532L451.941 340.46L448.03 338.488L449.124 336.318L455.044 339.304L453.382 342.599L452.991 343.308L447.033 355.121L446.695 355.858L444.737 359.742ZM466.36 349.378L459.24 363.495L444.883 356.254L446.126 353.79L459.626 360.598L457.92 361.183L463.715 349.691L463.992 351.141C463.144 350.825 462.317 350.487 461.514 350.126C460.728 349.775 459.996 349.428 459.317 349.086C456.638 347.735 454.684 346.346 453.455 344.92C452.234 343.52 451.903 342.267 452.462 341.16L453.859 340.588C454.228 342.655 456.59 344.788 460.948 346.985C461.787 347.408 462.667 347.818 463.586 348.215C464.515 348.639 465.44 349.026 466.36 349.378Z" fill="white"/>
<path d="M441.138 361.364L455.321 370.535L453.838 372.828L440.713 364.341L441.409 363.54L447.388 382.804L445.449 385.802L431.266 376.63L432.748 374.338L445.999 382.906L445.262 383.716L439.232 364.311L441.138 361.364Z" fill="white"/>
<path d="M437.63 394.616L435.926 396.788L423.371 386.935L425.075 384.763L437.63 394.616ZM442.881 389.432L432.139 403.12L430.369 401.731L441.111 388.043L442.881 389.432Z" fill="white"/>
<path d="M417.106 394.679L429.475 406.18L427.595 408.202L415.863 397.293L417.586 397.379L412.213 403.157C411.396 404.036 410.969 404.936 410.932 405.857C410.909 406.792 411.278 407.613 412.04 408.321C412.816 409.043 413.662 409.352 414.579 409.248C415.509 409.158 416.383 408.673 417.2 407.794L422.43 402.17L423.99 403.62L418.597 409.42C417.712 410.372 416.774 411.043 415.783 411.433C414.779 411.837 413.785 411.951 412.802 411.775C411.82 411.598 410.925 411.136 410.12 410.386C409.3 409.624 408.766 408.759 408.518 407.791C408.271 406.824 408.312 405.825 408.643 404.794C408.96 403.777 409.561 402.793 410.446 401.841L417.106 394.679Z" fill="white"/>
<path d="M398.143 414.073L402.959 421.073L408.953 427.051L400.148 434.385C398.888 435.435 397.669 435.956 396.491 435.948C395.31 435.968 394.285 435.456 393.414 434.411C392.621 433.458 392.341 432.403 392.574 431.245C392.805 430.116 393.496 428.993 394.649 427.877L394.806 428.488C393.318 429.702 391.939 430.343 390.669 430.412C389.411 430.496 388.341 430.008 387.458 428.947C386.536 427.841 386.213 426.64 386.487 425.344C386.759 424.077 387.601 422.854 389.015 421.676L398.143 414.073ZM396.587 416.424L398.22 416.743L390.705 423.002C389.798 423.757 389.277 424.491 389.141 425.203C388.99 425.927 389.19 426.62 389.74 427.281C390.303 427.957 391.014 428.263 391.872 428.199C392.714 428.148 393.696 427.656 394.818 426.721L401.226 421.383L402.493 422.905L396.224 428.127C395.378 428.831 394.901 429.555 394.79 430.297C394.665 431.053 394.864 431.745 395.389 432.375C395.888 432.975 396.478 433.277 397.16 433.282C397.838 433.316 398.585 432.993 399.399 432.315L406.338 426.536L406.36 428.156L400.907 422.782L396.587 416.424Z" fill="white"/>
<path d="M368.125 436.792L372.208 441.743L372.75 443.877L374.515 445.145L377.606 450.77L375.272 452.353L371.186 444.938L365.791 438.375L368.125 436.792ZM371.98 444.399C371.356 442.696 371.049 441.031 371.058 439.406C371.062 437.808 371.394 436.338 372.055 434.996C372.699 433.665 373.666 432.562 374.957 431.686C376.331 430.755 377.755 430.236 379.23 430.13C380.716 430.04 382.136 430.334 383.489 431.011C384.837 431.716 385.999 432.788 386.976 434.228C387.964 435.685 388.531 437.161 388.676 438.658C388.804 440.166 388.546 441.585 387.902 442.916C387.259 444.247 386.25 445.378 384.876 446.31C383.585 447.186 382.202 447.677 380.727 447.783C379.236 447.9 377.739 447.671 376.237 447.095C374.734 446.519 373.316 445.62 371.98 444.399ZM384.642 435.811C383.924 434.752 383.074 433.962 382.094 433.443C381.097 432.935 380.06 432.708 378.985 432.761C377.904 432.842 376.875 433.213 375.898 433.876C374.905 434.549 374.146 435.39 373.622 436.398C373.092 437.434 372.78 438.577 372.684 439.826C372.572 441.086 372.668 442.386 372.973 443.726C374.105 444.504 375.278 445.075 376.49 445.437C377.685 445.81 378.857 445.934 380.004 445.808C381.146 445.71 382.214 445.324 383.207 444.651C384.183 443.988 384.903 443.162 385.367 442.171C385.825 441.207 386.003 440.169 385.9 439.054C385.78 437.952 385.361 436.87 384.642 435.811Z" fill="white"/>
<path d="M362.632 440.575L370.294 455.628L367.834 456.88L360.798 443.057L362.075 443.384L351.728 448.65L351.815 447.63L358.851 461.452L356.391 462.704L349.355 448.882L350.365 449.344L339.911 454.665L340.372 453.454L347.408 467.277L344.948 468.528L337.286 453.476L362.632 440.575Z" fill="white"/>
<path d="M313.966 479.255L308.873 463.151L311.505 462.319L316.308 477.508L314.726 476.687L328.256 472.408L327.406 473.999L322.603 458.81L325.235 457.978L330.327 474.082L313.966 479.255Z" fill="white"/>
<path d="M307.586 481.02L304.883 481.578L303.59 475.321L303.628 474.761L303.076 472.088L302.753 471.266L300.464 460.19L303.167 459.632L307.586 481.02ZM304.441 473.062C304.366 474.874 304.022 476.518 303.407 477.993C302.773 479.472 301.905 480.703 300.801 481.687C299.677 482.674 298.352 483.326 296.824 483.642C295.199 483.978 293.684 483.913 292.281 483.447C290.878 482.981 289.69 482.175 288.718 481.028C287.726 479.885 287.052 478.452 286.696 476.728C286.344 475.024 286.394 473.441 286.848 471.979C287.286 470.541 288.055 469.32 289.155 468.317C290.258 467.333 291.623 466.673 293.249 466.337C294.776 466.022 296.252 466.095 297.675 466.556C299.078 467.022 300.364 467.808 301.532 468.915C302.684 470.045 303.654 471.427 304.441 473.062ZM289.457 476.158C289.716 477.411 290.209 478.463 290.937 479.314C291.644 480.168 292.513 480.765 293.543 481.103C294.557 481.466 295.642 481.527 296.797 481.288C297.973 481.046 299.003 480.547 299.889 479.792C300.759 479.061 301.476 478.137 302.042 477.019C302.608 475.901 303.016 474.663 303.266 473.305C302.498 472.156 301.632 471.181 300.67 470.379C299.708 469.577 298.681 469.003 297.588 468.657C296.48 468.335 295.338 468.295 294.163 468.538C293.007 468.777 292.034 469.253 291.242 469.968C290.435 470.707 289.876 471.609 289.565 472.674C289.234 473.743 289.198 474.904 289.457 476.158Z" fill="white"/>
<path d="M271.921 469.539C273.891 469.341 275.67 469.534 277.256 470.118C278.823 470.705 280.091 471.622 281.061 472.871C282.031 474.121 282.603 475.611 282.777 477.342C282.953 479.093 282.689 480.668 281.985 482.065C281.282 483.463 280.221 484.604 278.802 485.491C277.364 486.379 275.66 486.923 273.69 487.121C271.7 487.321 269.921 487.128 268.355 486.542C266.788 485.956 265.521 485.048 264.553 483.818C263.566 482.591 262.984 481.102 262.807 479.351C262.633 477.62 262.907 476.044 263.629 474.625C264.33 473.208 265.39 472.056 266.809 471.169C268.227 470.283 269.931 469.74 271.921 469.539ZM272.152 471.838C270.68 471.986 269.432 472.373 268.41 472.998C267.389 473.644 266.639 474.483 266.16 475.516C265.662 476.551 265.479 477.735 265.613 479.069C265.745 480.382 266.159 481.496 266.854 482.411C267.529 483.328 268.431 484.001 269.56 484.431C270.688 484.86 271.989 485 273.461 484.852C274.914 484.706 276.161 484.309 277.201 483.662C278.222 483.017 278.971 482.177 279.45 481.144C279.929 480.111 280.103 478.938 279.971 477.624C279.837 476.291 279.432 475.166 278.757 474.249C278.082 473.332 277.18 472.659 276.051 472.23C274.905 471.822 273.605 471.692 272.152 471.838Z" fill="white"/>
<path d="M248.32 470.666C250.26 470.674 251.978 471.05 253.476 471.796C254.953 472.562 256.119 473.606 256.973 474.93C257.808 476.273 258.222 477.815 258.216 479.555C258.209 481.314 257.803 482.853 256.998 484.17C256.193 485.487 255.079 486.512 253.656 487.247C252.233 487.981 250.602 488.345 248.762 488.338C246.942 488.331 245.353 487.925 243.996 487.12C242.639 486.314 241.594 485.18 240.859 483.718C240.105 482.275 239.731 480.593 239.739 478.673L256.119 478.736L256.11 480.926L240.9 480.868L242.524 479.884C242.579 481.144 242.875 482.235 243.412 483.157C243.948 484.079 244.675 484.792 245.593 485.296C246.511 485.799 247.58 486.054 248.8 486.058C250.12 486.063 251.271 485.798 252.254 485.262C253.236 484.745 254.008 484.008 254.572 483.05C255.116 482.093 255.39 480.964 255.395 479.664C255.4 478.304 255.095 477.122 254.479 476.12C253.863 475.118 252.996 474.344 251.878 473.8C250.76 473.256 249.441 472.981 247.921 472.975C246.541 472.969 245.19 473.194 243.868 473.649C242.527 474.104 241.324 474.729 240.261 475.525L240.269 473.365C241.313 472.529 242.555 471.864 243.997 471.37C245.439 470.895 246.88 470.661 248.32 470.666Z" fill="white"/>
<path d="M235.906 470.804L234.28 487.615L231.533 487.35L232.919 473.017L233.726 473.396L220.724 486.304L217.529 485.996L233.368 470.558L235.906 470.804ZM221.872 469.447L226.614 478.375L224.623 480.262L218.587 469.129L221.872 469.447Z" fill="white"/>
<path d="M207.182 483.287L204.469 482.781L207.4 467.092L210.113 467.599L207.182 483.287ZM214.207 485.546L197.103 482.351L197.516 480.139L214.62 483.334L214.207 485.546Z" fill="white"/>
<path d="M166.8 463.686C167.36 463.903 167.827 464.245 168.204 464.713C168.561 465.173 168.789 465.691 168.888 466.266C168.968 466.833 168.896 467.406 168.672 467.984C168.44 468.581 168.104 469.061 167.662 469.426C167.201 469.784 166.687 470.003 166.12 470.083C165.526 470.174 164.95 470.111 164.391 469.894C163.794 469.663 163.317 469.317 162.959 468.856C162.594 468.414 162.363 467.906 162.264 467.331C162.165 466.757 162.232 466.171 162.463 465.574C162.687 464.996 163.03 464.528 163.49 464.171C163.951 463.813 164.469 463.585 165.043 463.486C165.618 463.388 166.204 463.454 166.8 463.686Z" fill="white"/>
<path d="M129.013 435.123C131.113 436.48 132.702 438.092 133.783 439.957C134.846 441.812 135.35 443.758 135.296 445.794C135.23 447.848 134.573 449.84 133.324 451.772C132.064 453.72 130.517 455.137 128.682 456.022C126.847 456.908 124.866 457.246 122.738 457.038C120.594 456.818 118.472 456.029 116.372 454.672C114.273 453.315 112.692 451.708 111.628 449.854C110.565 447.999 110.061 446.054 110.115 444.017C110.17 441.98 110.827 439.988 112.087 438.039C113.336 436.108 114.883 434.691 116.729 433.789C118.564 432.903 120.545 432.565 122.673 432.774C124.8 432.982 126.914 433.765 129.013 435.123ZM127.629 437.264C125.966 436.189 124.321 435.566 122.693 435.395C121.054 435.24 119.53 435.516 118.119 436.224C116.709 436.932 115.504 438.058 114.505 439.603C113.495 441.165 112.957 442.734 112.89 444.311C112.824 445.887 113.202 447.383 114.027 448.797C114.851 450.211 116.094 451.456 117.757 452.531C119.42 453.606 121.065 454.229 122.693 454.4C124.321 454.572 125.848 454.309 127.275 453.612C128.685 452.905 129.895 451.77 130.905 450.208C131.905 448.663 132.437 447.102 132.504 445.526C132.554 443.938 132.172 442.429 131.359 440.998C130.535 439.584 129.291 438.339 127.629 437.264Z" fill="white"/>
<path d="M108.366 419.967C110.046 421.356 111.207 422.887 111.849 424.559C112.477 426.247 112.58 428.006 112.157 429.836C111.719 431.653 110.754 433.463 109.263 435.267C107.02 437.979 104.569 439.547 101.91 439.97C99.2226 440.395 96.5246 439.656 93.8156 437.754C92.7218 437.005 91.8181 436.388 91.1043 435.901C90.3751 435.402 89.7692 435.005 89.2867 434.71C88.7914 434.43 88.3654 434.208 88.0088 434.043C87.6368 433.865 87.2598 433.709 86.8777 433.575L88.4835 431.633C88.8629 431.739 89.3297 431.943 89.884 432.246C90.4383 432.548 91.125 432.973 91.944 433.521C92.7348 434.071 93.6952 434.761 94.8251 435.591C97.0542 437.227 99.2334 437.887 101.363 437.571C103.492 437.256 105.487 435.973 107.348 433.722L108.055 432.867L108.164 433.112C106.991 433.777 105.8 434.181 104.592 434.324C103.369 434.455 102.163 434.327 100.976 433.943C99.7736 433.545 98.6328 432.901 97.5539 432.009C96.2129 430.9 95.2581 429.669 94.6895 428.317C94.1081 426.98 93.9223 425.619 94.1321 424.236C94.3264 422.839 94.927 421.532 95.9338 420.315C96.9916 419.035 98.2097 418.174 99.5882 417.731C100.967 417.288 102.412 417.25 103.924 417.618C105.437 417.986 106.917 418.769 108.366 419.967ZM106.848 421.709C105.831 420.868 104.799 420.326 103.753 420.085C102.692 419.83 101.681 419.876 100.719 420.223C99.7426 420.557 98.8845 421.171 98.1454 422.065C97.3935 422.975 96.9516 423.933 96.8198 424.94C96.6598 425.949 96.8045 426.951 97.2539 427.946C97.6879 428.927 98.4136 429.839 99.4309 430.68C100.787 431.801 102.28 432.413 103.909 432.514C105.523 432.603 107.143 432.165 108.771 431.201C109.689 429.494 109.983 427.804 109.654 426.131C109.309 424.445 108.374 422.971 106.848 421.709Z" fill="white"/>
<path d="M80.9249 403.515C82.0309 402.727 83.2558 402.286 84.5997 402.192C85.9294 402.083 87.2721 402.3 88.6278 402.843C89.9835 403.385 91.232 404.231 92.3734 405.381C93.6979 406.715 94.6048 408.153 95.0942 409.697C95.5694 411.254 95.6275 412.789 95.2684 414.301C94.8811 415.812 94.07 417.181 92.8352 418.407C91.6003 419.633 90.2327 420.427 88.7323 420.789C87.2037 421.152 85.6695 421.082 84.1298 420.582C82.5901 420.081 81.158 419.164 79.8335 417.83C78.6921 416.68 77.8552 415.425 77.3228 414.066C76.7761 412.72 76.5618 411.383 76.6797 410.054C76.7836 408.711 77.2406 407.482 78.0508 406.368L80.0587 408.391C79.2765 409.59 79.0243 410.897 79.302 412.312C79.5514 413.727 80.2679 415.031 81.4515 416.223C82.4097 417.188 83.4397 417.843 84.5415 418.186C85.6293 418.515 86.7182 418.533 87.8082 418.24C88.884 417.962 89.8974 417.35 90.8484 416.406C91.7993 415.462 92.4253 414.446 92.7262 413.358C93.0272 412.27 93.017 411.181 92.6957 410.091C92.3461 409.001 91.6922 407.973 90.734 407.008C89.5363 405.802 88.2308 405.069 86.8176 404.809C85.3902 404.535 84.0953 404.778 82.9329 405.537L80.9249 403.515Z" fill="white"/>
<path d="M85.3696 390.616C85.9176 391.279 86.3235 391.943 86.5873 392.607C86.851 393.271 87.0313 393.992 87.1282 394.768L85.4404 396.163C85.3435 395.387 85.1746 394.696 84.9337 394.091C84.6927 393.486 84.3174 392.875 83.8076 392.258C83.2596 391.595 82.634 391.153 81.9306 390.93C81.2427 390.694 80.4258 390.695 79.48 390.932L60.6289 395.58L58.7555 393.314L78.9088 388.64C79.8392 388.416 80.6973 388.355 81.4831 388.458C82.2715 388.533 82.9889 388.757 83.6353 389.131C84.269 389.489 84.8471 389.984 85.3696 390.616ZM79.041 392.19L71.5443 408.781L69.6136 406.446L77.2632 390.04L79.041 392.19Z" fill="white"/>
<path d="M56.8845 364.515L62.3986 360.834L63.7645 362.88L60.1217 365.312L70.1161 380.282L73.7589 377.85L75.1082 379.871L69.5941 383.553L67.5452 380.484L67.1204 379.793L59.7745 368.79L59.2998 368.133L56.8845 364.515ZM55.2527 388.438L46.4743 375.289L59.8478 366.361L61.3803 368.656L48.8052 377.051L49.1369 375.279L56.2829 385.983L54.8847 385.509C55.5777 384.926 56.279 384.374 56.9887 383.852C57.6818 383.341 58.3443 382.875 58.9764 382.453C61.4715 380.787 63.6424 379.771 65.4894 379.403C67.3085 379.031 68.5624 379.36 69.2509 380.391L69.0605 381.889C67.0797 381.191 64.0601 382.197 60.0014 384.907C59.2197 385.429 58.4296 385.992 57.6312 386.598C56.8051 387.197 56.0123 387.811 55.2527 388.438Z" fill="white"/>
<path d="M57.4706 360.982L42.5333 368.865L41.259 366.451L55.082 359.155L55.4394 360.154L35.714 355.944L34.0476 352.787L48.9849 344.903L50.2592 347.318L36.3036 354.683L35.9586 353.644L55.8322 357.877L57.4706 360.982Z" fill="white"/>
<path d="M30.186 341.611L29.1298 339.061L43.8751 332.954L44.9312 335.504L30.186 341.611ZM32.1278 348.73L25.4695 332.654L27.5483 331.793L34.2066 347.869L32.1278 348.73Z" fill="white"/>
<path d="M40.3179 324.003L24.2332 329.157L23.3912 326.528L38.6473 321.64L37.7289 323.1L35.3217 315.586C34.9556 314.444 34.38 313.63 33.5951 313.147C32.7911 312.669 31.8939 312.589 30.9034 312.907C29.894 313.23 29.2103 313.817 28.8525 314.666C28.4756 315.522 28.4703 316.521 28.8364 317.664L31.1796 324.978L29.1511 325.628L26.7347 318.085C26.3381 316.847 26.2124 315.701 26.3575 314.647C26.4966 313.573 26.8837 312.651 27.5189 311.88C28.1541 311.11 28.9955 310.557 30.0431 310.221C31.1097 309.879 32.1253 309.838 33.09 310.095C34.0547 310.353 34.9056 310.879 35.6427 311.672C36.3736 312.446 36.9374 313.452 37.3341 314.69L40.3179 324.003Z" fill="white"/>
<path d="M32.6167 297.594L24.1515 298.316L15.9906 300.568L13.9727 289.287C13.684 287.673 13.8344 286.355 14.4241 285.336C14.9905 284.3 15.9431 283.662 17.2819 283.423C18.5025 283.204 19.558 283.483 20.4485 284.258C21.3157 285.017 21.9492 286.174 22.3491 287.728L21.7404 287.562C21.4221 285.669 21.5471 284.153 22.1157 283.015C22.6645 281.881 23.6181 281.192 24.9766 280.949C26.3941 280.696 27.598 281.008 28.5883 281.888C29.5554 282.751 30.2009 284.088 30.5249 285.9L32.6167 297.594ZM31.344 295.079L30.259 296.339L28.537 286.712C28.3292 285.551 27.9496 284.735 27.3982 284.265C26.8432 283.775 26.1425 283.605 25.2959 283.757C24.4297 283.912 23.8121 284.378 23.4431 285.155C23.0707 285.912 23.013 287.01 23.2701 288.447L24.7386 296.656L22.7895 297.005L21.3527 288.973C21.159 287.89 20.7668 287.117 20.176 286.654C19.5817 286.171 18.8809 286.001 18.0737 286.146C17.3059 286.283 16.7512 286.646 16.4097 287.236C16.0449 287.809 15.9558 288.617 16.1425 289.661L17.7324 298.55L16.3125 297.767L23.6814 295.687L31.344 295.079Z" fill="white"/>
<path d="M27.6968 260.215L21.3721 261.306L19.2504 260.718L17.2743 261.623L10.8571 261.517L10.6397 258.705L19.1048 258.833L27.4795 257.404L27.6968 260.215ZM19.1787 259.79C20.9674 260.093 22.5652 260.652 23.9721 261.466C25.3576 262.262 26.4693 263.279 27.3073 264.518C28.1437 265.737 28.6221 267.124 28.7423 268.68C28.8702 270.335 28.6146 271.829 27.9755 273.162C27.3164 274.497 26.3573 275.584 25.0983 276.424C23.8177 277.245 22.3101 277.722 20.5752 277.857C18.8205 277.992 17.2573 277.752 15.8858 277.136C14.5126 276.5 13.4079 275.572 12.5714 274.353C11.735 273.134 11.2528 271.697 11.1248 270.042C11.0046 268.486 11.2641 267.042 11.9032 265.709C12.5408 264.356 13.4822 263.169 14.7274 262.15C15.9726 261.131 17.4563 260.345 19.1787 259.79ZM20.3579 275.045C21.6341 274.946 22.7407 274.6 23.6777 274.006C24.6132 273.392 25.3246 272.605 25.8121 271.644C26.278 270.666 26.4655 269.588 26.3746 268.411C26.2821 267.215 25.9281 266.139 25.3126 265.184C24.6757 264.21 23.8386 263.372 22.8014 262.67C21.7627 261.948 20.586 261.387 19.2712 260.987C18.0336 261.584 16.957 262.319 16.0416 263.192C15.1246 264.046 14.4362 265.001 13.9765 266.06C13.4952 267.1 13.3008 268.218 13.3933 269.415C13.4842 270.591 13.8451 271.627 14.4759 272.521C15.0852 273.396 15.8992 274.066 16.9179 274.528C17.935 274.971 19.0817 275.144 20.3579 275.045Z" fill="white"/>
<path d="M27.0752 253.434L10.2033 252.652L10.3311 249.895L25.8245 250.613L24.9096 251.562L25.447 239.964L26.2911 240.544L10.7977 239.826L10.9255 237.069L26.4188 237.787L25.5178 238.436L26.0608 226.718L26.8855 227.718L11.3921 227L11.5198 224.243L28.3917 225.024L27.0752 253.434Z" fill="white"/>
<path d="M17.3317 192.222L33.8592 195.703L33.2904 198.404L17.7023 195.121L19.195 194.148L16.2707 208.033L15.3036 206.511L30.8916 209.794L30.3228 212.495L13.7954 209.014L17.3317 192.222Z" fill="white"/>
<path d="M19.0806 185.129L19.9326 182.504L26.0105 184.477L26.4778 184.786L29.0745 185.629L29.9483 185.754L40.706 189.246L39.854 191.871L19.0806 185.129ZM27.5527 186.333C26.0144 185.371 24.7565 184.259 23.7788 182.995C22.8072 181.713 22.1671 180.348 21.8583 178.903C21.5558 177.438 21.6453 175.963 22.1268 174.479C22.6393 172.9 23.445 171.617 24.544 170.627C25.6429 169.638 26.9313 169.005 28.4091 168.728C29.8931 168.431 31.4721 168.555 33.1461 169.098C34.8012 169.635 36.1517 170.463 37.1979 171.58C38.2311 172.672 38.9117 173.945 39.2394 175.397C39.5482 176.843 39.4463 178.355 38.9339 179.934C38.4523 181.418 37.659 182.664 36.5538 183.672C35.4548 184.661 34.1356 185.389 32.596 185.857C31.0437 186.299 29.3625 186.458 27.5527 186.333ZM32.2756 171.78C31.0581 171.385 29.9 171.293 28.8011 171.504C27.7085 171.697 26.7603 172.156 25.9565 172.884C25.1398 173.586 24.5494 174.498 24.1851 175.621C23.8147 176.762 23.7384 177.904 23.9561 179.047C24.1611 180.165 24.6092 181.246 25.3006 182.291C25.992 183.335 26.8661 184.302 27.9231 185.192C29.3011 185.092 30.5766 184.823 31.7495 184.384C32.9224 183.944 33.9295 183.335 34.7709 182.557C35.5994 181.754 36.1988 180.781 36.5692 179.64C36.9335 178.517 37.0008 177.435 36.7712 176.393C36.5287 175.327 36.0216 174.394 35.25 173.597C34.4846 172.781 33.4931 172.176 32.2756 171.78Z" fill="white"/>
<path d="M46.5737 160.01C45.7685 161.819 44.7188 163.267 43.4247 164.355C42.1386 165.424 40.7127 166.07 39.1469 166.293C37.5811 166.515 36.0034 166.272 34.4138 165.565C32.8059 164.849 31.5698 163.839 30.7054 162.535C29.8411 161.231 29.3759 159.743 29.3099 158.072C29.2519 156.382 29.6256 154.633 30.4308 152.824C31.2441 150.997 32.2938 149.549 33.5798 148.479C34.8659 147.41 36.2826 146.76 37.8302 146.529C39.3858 146.28 40.9676 146.514 42.5755 147.229C44.1651 147.937 45.3972 148.956 46.2716 150.287C47.1542 151.599 47.6285 153.091 47.6946 154.762C47.7607 156.433 47.387 158.183 46.5737 160.01ZM44.4633 159.07C45.0652 157.718 45.3482 156.443 45.3123 155.245C45.2582 154.039 44.9014 152.971 44.242 152.043C43.5906 151.096 42.6529 150.351 41.4287 149.806C40.2228 149.269 39.0502 149.075 37.9109 149.225C36.7797 149.356 35.7478 149.805 34.8153 150.572C33.8828 151.34 33.1156 152.399 32.5137 153.751C31.92 155.085 31.6461 156.364 31.6921 157.589C31.7463 158.795 32.1031 159.862 32.7625 160.791C33.422 161.719 34.3546 162.452 35.5606 162.989C36.7848 163.533 37.9624 163.74 39.0936 163.609C40.2248 163.478 41.2566 163.028 42.1892 162.261C43.1115 161.468 43.8696 160.404 44.4633 159.07Z" fill="white"/>
<path d="M56.8271 139.647C55.865 141.332 54.6908 142.642 53.3044 143.578C51.9105 144.486 50.4272 144.986 48.8545 145.079C47.2743 145.144 45.7287 144.745 44.2177 143.882C42.6893 143.009 41.5504 141.898 40.8008 140.549C40.0512 139.2 39.7072 137.725 39.7688 136.125C39.8303 134.525 40.3173 132.926 41.2297 131.328C42.1322 129.748 43.268 128.565 44.6371 127.781C46.0062 126.997 47.5082 126.645 49.143 126.726C50.7704 126.781 52.4177 127.284 54.085 128.236L45.9624 142.46L44.0607 141.374L51.603 128.166L51.6594 130.063C50.5355 129.491 49.4402 129.211 48.3735 129.223C47.3068 129.236 46.3282 129.518 45.4378 130.069C44.5474 130.62 43.7997 131.425 43.1948 132.485C42.5402 133.631 42.2044 134.763 42.1874 135.882C42.153 136.991 42.4137 138.027 42.9697 138.989C43.5356 139.934 44.383 140.729 45.5119 141.374C46.6929 142.048 47.8713 142.364 49.0471 142.321C50.223 142.279 51.3231 141.905 52.3474 141.2C53.3717 140.496 54.2607 139.483 55.0145 138.163C55.6988 136.965 56.1685 135.678 56.4236 134.304C56.6886 132.912 56.7366 131.558 56.5675 130.241L58.4432 131.312C58.657 132.631 58.6239 134.04 58.344 135.539C58.0468 137.027 57.5411 138.397 56.8271 139.647Z" fill="white"/>
<path d="M63.0365 128.389L49.2342 118.654L50.8249 116.399L62.5925 124.698L61.8632 125.212L57.0843 107.524L58.9344 104.901L64.5063 126.305L63.0365 128.389ZM71.1633 116.866L61.0582 116.568L60.4041 113.904L73.0653 114.17L71.1633 116.866Z" fill="white"/>
<path d="M65.6811 98.0783L67.4552 95.964L79.6811 106.223L77.9069 108.337L65.6811 98.0783ZM60.2633 103.088L71.4481 89.7589L73.1717 91.2052L61.9869 104.534L60.2633 103.088Z" fill="white"/>
<path d="M102.998 72.0135C102.534 72.3942 102.006 72.6335 101.414 72.7315C100.837 72.8168 100.274 72.7613 99.7248 72.5651C99.1912 72.3563 98.7277 72.0122 98.3343 71.5329C97.9283 71.0382 97.6749 70.5088 97.5742 69.9446C97.4889 69.3678 97.5507 68.8126 97.7595 68.2789C97.9712 67.7172 98.3089 67.2459 98.7727 66.8653C99.2674 66.4593 99.8032 66.2136 100.38 66.1283C100.944 66.0276 101.501 66.0753 102.05 66.2715C102.599 66.4676 103.077 66.8131 103.483 67.3078C103.876 67.7871 104.115 68.3151 104.2 68.892C104.286 69.4688 104.23 70.0317 104.034 70.5808C103.838 71.1299 103.493 71.6075 102.998 72.0135Z" fill="white"/>
<path d="M146.271 53.0825C144.055 54.2412 141.87 54.8314 139.714 54.8528C137.577 54.8651 135.635 54.3459 133.889 53.2954C132.134 52.2271 130.724 50.674 129.658 48.6359C128.582 46.5802 128.111 44.5357 128.244 42.5026C128.377 40.4695 129.058 38.5784 130.287 36.8294C131.534 35.0712 133.266 33.6127 135.481 32.454C137.696 31.2953 139.873 30.7098 142.01 30.6976C144.148 30.6854 146.09 31.2045 147.836 32.255C149.581 33.3056 150.992 34.8587 152.067 36.9145C153.133 38.9525 153.604 40.997 153.481 43.0478C153.348 45.0809 152.667 46.972 151.438 48.721C150.208 50.47 148.486 51.9238 146.271 53.0825ZM145.089 50.823C146.843 49.9053 148.196 48.7802 149.147 47.4478C150.088 46.0977 150.598 44.6347 150.677 43.0588C150.755 41.4829 150.368 39.8798 149.515 38.2493C148.653 36.6012 147.553 35.3599 146.213 34.5256C144.874 33.6913 143.386 33.2846 141.749 33.3056C140.113 33.3265 138.417 33.7959 136.663 34.7136C134.908 35.6312 133.556 36.7563 132.605 38.0887C131.654 39.4211 131.131 40.8799 131.034 42.465C130.956 44.0409 131.348 45.653 132.21 47.3011C133.062 48.9315 134.158 50.1639 135.498 50.9982C136.855 51.8233 138.356 52.2342 140.002 52.231C141.639 52.21 143.334 51.7407 145.089 50.823Z" fill="white"/>
<path d="M169.949 42.3345C167.914 43.1157 166.01 43.375 164.238 43.1124C162.459 42.8311 160.877 42.0567 159.491 40.7893C158.123 39.5147 157.02 37.785 156.182 35.6004C154.92 32.3142 154.759 29.4092 155.697 26.8855C156.646 24.336 158.615 22.3486 161.603 20.9234C162.792 20.3384 163.774 19.8545 164.548 19.4717C165.341 19.0816 165.984 18.749 166.479 18.4736C166.965 18.1796 167.368 17.9178 167.687 17.6883C168.025 17.4516 168.346 17.1998 168.651 16.933L169.554 19.2856C169.275 19.564 168.868 19.8703 168.332 20.2045C167.796 20.5387 167.088 20.928 166.209 21.3725C165.342 21.7912 164.269 22.2887 162.99 22.8651C160.471 24.0034 158.826 25.5774 158.055 27.5872C157.284 29.5969 157.421 31.9648 158.468 34.691L158.865 35.7272L158.598 35.7012C158.595 34.3529 158.828 33.1174 159.297 31.9949C159.784 30.8652 160.487 29.8777 161.405 29.0326C162.342 28.1804 163.464 27.5034 164.771 27.0018C166.395 26.3783 167.936 26.1511 169.394 26.3201C170.844 26.4704 172.12 26.9768 173.222 27.8391C174.343 28.6943 175.186 29.8594 175.753 31.3345C176.347 32.8843 176.499 34.3684 176.208 35.7869C175.917 37.2053 175.24 38.4828 174.177 39.6193C173.113 40.7558 171.704 41.6609 169.949 42.3345ZM169.177 40.1564C170.409 39.6834 171.388 39.0509 172.112 38.2588C172.855 37.4595 173.311 36.5559 173.482 35.548C173.67 34.533 173.557 33.4839 173.141 32.401C172.719 31.2993 172.101 30.4438 171.289 29.8344C170.488 29.1992 169.544 28.833 168.457 28.7361C167.389 28.6319 166.239 28.8164 165.006 29.2893C163.363 29.92 162.097 30.9199 161.209 32.2892C160.339 33.6512 159.925 35.2778 159.965 37.169C161.001 38.8066 162.328 39.8931 163.947 40.4284C165.585 40.9566 167.329 40.8659 169.177 40.1564Z" fill="white"/>
<path d="M196.84 26.7674C196.984 28.1178 196.766 29.4014 196.188 30.6183C195.63 31.8298 194.781 32.8929 193.643 33.8075C192.505 34.7221 191.155 35.3943 189.593 35.8239C187.78 36.3225 186.081 36.4061 184.497 36.0745C182.907 35.7236 181.541 35.0205 180.401 33.9653C179.274 32.8855 178.48 31.5067 178.018 29.829C177.557 28.1513 177.537 26.57 177.958 25.0851C178.393 23.5756 179.207 22.2732 180.399 21.1778C181.591 20.0823 183.094 19.2853 184.906 18.7867C186.468 18.3571 187.972 18.2442 189.418 18.448C190.859 18.6326 192.129 19.1025 193.229 19.8579C194.348 20.608 195.193 21.6095 195.766 22.8625L193.018 23.6183C192.358 22.348 191.343 21.4863 189.974 21.0332C188.619 20.5556 187.131 20.5395 185.511 20.9851C184.2 21.3458 183.124 21.9217 182.284 22.7129C181.463 23.4988 180.912 24.4384 180.632 25.5319C180.347 26.606 180.382 27.7891 180.737 29.0811C181.093 30.3731 181.67 31.4173 182.47 32.2137C183.27 33.0101 184.224 33.536 185.331 33.7914C186.453 34.0223 187.669 33.9574 188.98 33.5967C190.619 33.1458 191.899 32.3686 192.819 31.265C193.759 30.1561 194.183 28.9088 194.093 27.5233L196.84 26.7674Z" fill="white"/>
<path d="M206.277 36.8257C205.43 36.9739 204.652 36.9982 203.944 36.8986C203.237 36.7991 202.522 36.5993 201.799 36.2993L201.422 34.1421C202.144 34.4421 202.828 34.6372 203.473 34.7274C204.118 34.8175 204.835 34.7937 205.623 34.6558C206.47 34.5077 207.165 34.1831 207.707 33.6823C208.252 33.2012 208.655 32.491 208.918 31.5518L214.208 12.8708L217.104 12.3642L211.191 32.1895C210.926 33.109 210.554 33.8847 210.076 34.5165C209.621 35.1647 209.071 35.6771 208.426 36.0538C207.801 36.4271 207.085 36.6844 206.277 36.8257ZM208.041 30.5477L197.334 15.8224L200.319 15.3004L210.79 30.067L208.041 30.5477Z" fill="white"/>
<path d="M243.054 24.8714L243.54 31.4836L241.087 31.6637L240.766 27.2955L222.814 28.6136L223.135 32.9818L220.711 33.1598L220.226 26.5476L223.906 26.2774L224.716 26.248L237.911 25.2792L238.716 25.1899L243.054 24.8714ZM223.043 11.6613L238.811 10.5035L239.988 26.5404L237.236 26.7425L236.129 11.6631L237.507 12.8252L224.672 13.7677L225.773 12.7844C225.939 13.6747 226.074 14.5572 226.178 15.4319C226.281 16.2866 226.36 17.093 226.416 17.851C226.635 20.8429 226.45 23.2329 225.859 25.021C225.287 26.7876 224.383 27.7163 223.146 27.8071L221.937 26.9033C223.52 25.5236 224.133 22.4003 223.775 17.5334C223.707 16.596 223.606 15.6308 223.473 14.6379C223.358 13.6235 223.215 12.6313 223.043 11.6613Z" fill="white"/>
<path d="M247.388 27.0617L247.974 10.1819L250.703 10.2767L250.16 25.8973L249.116 25.7109L262.575 10.6893L266.143 10.8133L265.557 27.6931L262.828 27.5983L263.376 11.8278L264.449 12.0452L250.896 27.1836L247.388 27.0617Z" fill="white"/>
<path d="M276.314 12.7966L279.053 13.1361L277.09 28.9749L274.351 28.6354L276.314 12.7966ZM269.164 10.9733L286.432 13.1136L286.155 15.3465L268.887 13.2062L269.164 10.9733Z" fill="white"/>
<path d="M287.152 30.3006L290.633 13.7732L293.334 14.342L290.032 30.0181L289.218 28.4977L296.939 30.1236C298.113 30.3709 299.104 30.2732 299.913 29.8303C300.726 29.3679 301.239 28.6278 301.454 27.6101C301.672 26.5729 301.501 25.6886 300.939 24.9572C300.382 24.2062 299.516 23.7071 298.342 23.4598L290.827 21.8771L291.266 19.7928L299.016 21.425C300.288 21.6929 301.346 22.1508 302.191 22.7988C303.055 23.4509 303.665 24.2436 304.02 25.1768C304.375 26.1101 304.44 27.1149 304.213 28.1913C303.982 29.2872 303.516 30.1906 302.815 30.9012C302.113 31.6119 301.235 32.0914 300.182 32.3395C299.147 32.5918 297.994 32.584 296.722 32.3161L287.152 30.3006Z" fill="white"/>
<path d="M314.466 36.7378L318.024 29.0228L320.102 20.8157L330.905 24.6394C332.451 25.1866 333.521 25.9686 334.116 26.9853C334.737 27.9899 334.82 29.1332 334.366 30.4153C333.952 31.5842 333.189 32.364 332.074 32.7546C330.986 33.133 329.667 33.1119 328.119 32.6912L328.564 32.2439C330.367 32.9034 331.622 33.7615 332.33 34.8183C333.045 35.8562 333.172 37.0257 332.712 38.3266C332.231 39.6841 331.364 40.5758 330.11 41.0018C328.882 41.4156 327.4 41.3156 325.665 40.7016L314.466 36.7378ZM317.282 36.8751L316.722 35.3086L325.942 38.5718C327.054 38.9656 327.951 39.039 328.633 38.7922C329.333 38.5521 329.826 38.0267 330.113 37.216C330.407 36.3864 330.307 35.6192 329.814 34.9143C329.34 34.216 328.415 33.6233 327.038 33.1362L319.176 30.3535L319.837 28.4869L327.529 31.2096C328.566 31.5766 329.432 31.6179 330.127 31.3334C330.841 31.0556 331.334 30.5301 331.608 29.7571C331.868 29.0218 331.826 28.36 331.483 27.7718C331.165 27.1713 330.507 26.6942 329.507 26.3405L320.995 23.3276L322.377 22.4801L320.541 29.9137L317.282 36.8751Z" fill="white"/>
<path d="M349.657 51.0495L351.843 45.015L353.405 43.4634L353.597 41.2984L356.868 35.7763L359.418 36.9804L355.114 44.2703L352.207 52.2535L349.657 51.0495ZM354.246 43.8604C353.096 45.2641 351.82 46.3754 350.416 47.1943C349.038 48.0037 347.604 48.4654 346.112 48.5795C344.639 48.7022 343.197 48.4305 341.786 47.7644C340.285 47.0557 339.114 46.0935 338.272 44.8778C337.439 43.6441 336.97 42.2724 336.864 40.7628C336.785 39.2437 337.117 37.6974 337.86 36.124C338.612 34.5324 339.595 33.2936 340.809 32.4073C342.042 31.5296 343.395 31.0295 344.869 30.9068C346.342 30.7842 347.829 31.0772 349.33 31.786C350.741 32.452 351.867 33.3929 352.709 34.6086C353.568 35.8328 354.132 37.2381 354.401 38.8245C354.669 40.411 354.617 42.0896 354.246 43.8604ZM340.41 37.328C339.864 38.4854 339.616 39.6183 339.668 40.7265C339.738 41.8432 340.07 42.8512 340.662 43.7504C341.282 44.64 342.125 45.3368 343.192 45.8406C344.277 46.3529 345.387 46.5784 346.522 46.5171C347.683 46.4462 348.826 46.1342 349.95 45.581C351.092 45.0364 352.162 44.2921 353.161 43.3481C353.255 41.9772 353.15 40.6778 352.845 39.45C352.558 38.2308 352.068 37.1593 351.377 36.2355C350.711 35.3022 349.836 34.5793 348.751 34.067C347.684 33.5632 346.606 33.3638 345.517 33.4688C344.454 33.5643 343.47 33.9399 342.563 34.5955C341.674 35.2597 340.957 36.1705 340.41 37.328Z" fill="white"/>
<path d="M354.715 53.1943L363.729 38.911L366.063 40.3841L357.785 53.5003L357.412 52.2362L367.23 58.4327L366.309 58.8802L374.587 45.764L376.921 47.237L368.643 60.3533L368.524 59.2493L378.444 65.5098L377.168 65.7331L385.446 52.6169L387.78 54.09L378.765 68.3732L354.715 53.1943Z" fill="white"/>
<path d="M412.85 74.926L401.668 87.5836L399.599 85.7562L410.146 73.818L410.256 75.5965L399.622 66.2014L401.423 66.1112L390.876 78.0494L388.808 76.222L399.99 63.5644L412.85 74.926Z" fill="white"/>
<path d="M418.582 80.3319L420.446 82.3667L415.735 86.6839L415.236 86.9381L413.223 88.7826L412.683 89.4809L404.345 97.1221L402.48 95.0873L418.582 80.3319ZM413.36 87.1111C414.954 86.2464 416.543 85.6999 418.124 85.4716C419.719 85.2581 421.221 85.3732 422.631 85.817C424.055 86.2754 425.294 87.0797 426.348 88.2299C427.47 89.4537 428.19 90.7875 428.509 92.2311C428.828 93.6748 428.745 95.1079 428.258 96.5305C427.785 97.9679 426.899 99.2811 425.602 100.47C424.319 101.646 422.934 102.413 421.446 102.773C419.986 103.134 418.544 103.1 417.119 102.669C415.708 102.226 414.442 101.392 413.321 100.168C412.267 99.0178 411.573 97.7135 411.241 96.2552C410.922 94.8115 410.938 93.3047 411.289 91.7346C411.669 90.1657 412.359 88.6246 413.36 87.1111ZM423.696 98.3911C424.64 97.5264 425.291 96.5639 425.649 95.5036C426.02 94.4582 426.087 93.4065 425.85 92.3486C425.641 91.292 425.138 90.3287 424.341 89.4588C423.53 88.5741 422.574 87.9449 421.472 87.5712C420.398 87.1988 419.237 87.0561 417.987 87.1431C416.738 87.2302 415.465 87.5144 414.17 87.9958C413.578 89.244 413.184 90.4866 412.989 91.7238C412.793 92.9609 412.827 94.1373 413.089 95.2529C413.38 96.3697 413.931 97.3705 414.742 98.2552C415.539 99.1252 416.448 99.7169 417.467 100.03C418.515 100.345 419.576 100.363 420.65 100.084C421.737 99.8203 422.753 99.2559 423.696 98.3911Z" fill="white"/>
<path d="M426.539 116.13C425.357 114.542 424.609 112.917 424.295 111.256C423.993 109.611 424.129 108.051 424.702 106.577C425.275 105.104 426.26 103.847 427.656 102.808C429.068 101.757 430.554 101.175 432.114 101.061C433.675 100.946 435.199 101.27 436.689 102.031C438.19 102.809 439.532 103.992 440.714 105.58C441.908 107.184 442.656 108.809 442.958 110.454C443.26 112.099 443.132 113.653 442.575 115.115C442.029 116.593 441.051 117.857 439.639 118.908C438.243 119.947 436.751 120.522 435.163 120.632C433.586 120.758 432.053 120.44 430.564 119.679C429.075 118.918 427.733 117.735 426.539 116.13ZM428.392 114.751C429.276 115.938 430.249 116.81 431.311 117.366C432.389 117.91 433.494 118.122 434.626 118.002C435.771 117.898 436.88 117.446 437.955 116.646C439.014 115.858 439.758 114.931 440.185 113.864C440.625 112.814 440.739 111.694 440.528 110.505C440.316 109.317 439.768 108.129 438.885 106.941C438.013 105.77 437.032 104.905 435.942 104.345C434.864 103.801 433.759 103.589 432.627 103.708C431.494 103.828 430.398 104.282 429.34 105.07C428.265 105.87 427.507 106.796 427.067 107.846C426.628 108.897 426.513 110.016 426.725 111.205C426.965 112.398 427.52 113.58 428.392 114.751Z" fill="white"/>
<path d="M439.23 134.931C438.231 133.268 437.663 131.603 437.525 129.936C437.414 128.276 437.703 126.738 438.392 125.321C439.108 123.911 440.212 122.758 441.703 121.862C443.212 120.956 444.738 120.505 446.282 120.511C447.825 120.518 449.28 120.939 450.645 121.775C452.011 122.611 453.167 123.818 454.115 125.395C455.052 126.955 455.528 128.524 455.542 130.102C455.557 131.68 455.129 133.162 454.259 134.548C453.416 135.941 452.171 137.132 450.525 138.12L442.09 124.079L443.968 122.951L451.8 135.99L450.117 135.111C451.166 134.411 451.946 133.592 452.457 132.655C452.967 131.719 453.2 130.727 453.155 129.681C453.11 128.635 452.773 127.589 452.145 126.543C451.465 125.412 450.642 124.565 449.674 124.003C448.724 123.431 447.693 123.152 446.581 123.166C445.48 123.198 444.373 123.548 443.258 124.217C442.093 124.918 441.241 125.791 440.703 126.838C440.165 127.884 439.953 129.026 440.067 130.264C440.18 131.503 440.629 132.773 441.411 134.076C442.122 135.259 443.014 136.298 444.088 137.193C445.173 138.104 446.331 138.809 447.562 139.305L445.711 140.418C444.455 139.959 443.242 139.241 442.072 138.264C440.919 137.277 439.972 136.166 439.23 134.931Z" fill="white"/>
<path d="M446.105 145.988L461.351 138.72L462.539 141.211L449.541 147.407L449.45 146.52L467.212 151.014L468.594 153.912L447.202 148.289L446.105 145.988ZM452.173 158.715L457.381 150.051L460.024 150.785L453.593 161.694L452.173 158.715Z" fill="white"/>
<path d="M471.452 163.681L472.422 166.266L457.479 171.872L456.51 169.288L471.452 163.681ZM469.751 156.501L475.864 172.792L473.758 173.583L467.645 157.292L469.751 156.501Z" fill="white"/>
<path d="M475.634 208.451C475.53 207.86 475.582 207.282 475.788 206.718C475.997 206.174 476.322 205.711 476.763 205.33C477.207 204.968 477.735 204.733 478.345 204.626C478.976 204.516 479.561 204.556 480.102 204.745C480.646 204.955 481.099 205.282 481.461 205.726C481.847 206.186 482.091 206.712 482.194 207.303C482.304 207.934 482.255 208.521 482.046 209.065C481.856 209.606 481.541 210.067 481.1 210.449C480.659 210.83 480.123 211.076 479.493 211.187C478.882 211.294 478.305 211.242 477.761 211.033C477.216 210.824 476.753 210.499 476.372 210.058C475.99 209.617 475.744 209.081 475.634 208.451Z" fill="white"/>
</svg>
