<svg width="25" height="24" viewBox="0 0 25 24" fill="none" xmlns="http://www.w3.org/2000/svg">
<rect x="0.159912" width="24" height="24" rx="12" fill="#2F2F31" fill-opacity="0.1"/>
<path fill-rule="evenodd" clip-rule="evenodd" d="M16.6277 7.53217C16.9206 7.82506 16.9206 8.29994 16.6277 8.59283L8.75274 16.4678C8.45985 16.7607 7.98498 16.7607 7.69208 16.4678C7.39919 16.1749 7.39919 15.7001 7.69208 15.4072L15.5671 7.53217C15.86 7.23928 16.3348 7.23928 16.6277 7.53217Z" fill="#2F2F31"/>
<path fill-rule="evenodd" clip-rule="evenodd" d="M7.69208 7.53217C7.98498 7.23928 8.45985 7.23928 8.75274 7.53217L16.6277 15.4072C16.9206 15.7001 16.9206 16.1749 16.6277 16.4678C16.3348 16.7607 15.86 16.7607 15.5671 16.4678L7.69208 8.59283C7.39919 8.29994 7.39919 7.82506 7.69208 7.53217Z" fill="#2F2F31"/>
</svg>
