<svg width="73" height="25" viewBox="0 0 73 25" fill="none" xmlns="http://www.w3.org/2000/svg">
<path d="M72.1744 10.4839H63.873C63.7199 10.4839 63.5667 10.6218 63.5667 10.7903V14.4662C63.5667 14.6193 63.7045 14.7725 63.873 14.7725H67.4264C67.5949 14.7725 67.7327 14.9103 67.7327 15.0788C67.7021 16.9627 67.3039 20.3783 63.873 20.3783C61.0701 20.3783 59.9367 16.9934 59.9367 13.0111C59.9367 8.29371 61.1008 5.38362 63.7045 5.38362C65.6038 5.38362 66.2164 6.99183 66.4002 7.57385C66.4462 7.71169 66.5534 7.78828 66.6912 7.78828H71.0104C71.1789 7.78828 71.332 7.63511 71.3167 7.46663C71.1483 5.10793 69.1265 0.972534 63.7964 0.972534C60.0746 0.972534 56.5825 3.23934 55.4644 8.8451V1.63113C55.4644 1.53924 55.3878 1.47797 55.3112 1.47797H50.747C50.6551 1.47797 50.5938 1.55455 50.5938 1.63113V14.5274C50.5938 14.6806 50.3794 14.7265 50.3028 14.5887L44.3141 1.56987C44.2835 1.5086 44.2376 1.47797 44.1763 1.47797H40.1328C40.0409 1.47797 39.9796 1.55455 39.9796 1.63113V8.86041C38.4786 4.28085 34.4045 0.987851 29.1051 0.987851C23.193 0.987851 18.8126 5.0773 17.817 10.4993H9.54621C9.45431 10.4993 9.40836 10.5758 9.40836 10.6524V14.6346C9.40836 14.7265 9.48494 14.7878 9.54621 14.7878H13.4059C13.4978 14.7878 13.5438 14.8644 13.5438 14.9257C13.5284 16.7789 13.2068 20.3629 9.66874 20.3629C6.86586 20.3629 5.74777 16.978 5.74777 12.9958C5.74777 8.2784 6.91181 5.3683 9.51557 5.3683C11.522 5.3683 12.104 7.19094 12.2419 7.66575C12.2572 7.74233 12.3185 7.78828 12.3797 7.78828H16.9746C17.0665 7.78828 17.1278 7.71169 17.1124 7.63511C17.0205 5.30704 15.0294 0.987851 9.57684 0.987851C5.05854 0.987851 0.877197 4.34211 0.877197 12.9652C0.877197 18.9079 3.20527 24.7587 9.65342 24.7587C14.4321 24.7587 17.48 21.0675 18.154 16.6258C19.5937 21.3585 23.7138 24.7587 29.1051 24.7587C34.3126 24.7587 38.4633 21.4504 39.9796 16.8402V24.1461C39.9796 24.2379 40.0562 24.2992 40.1328 24.2992H44.6971C44.7889 24.2992 44.8502 24.2226 44.8502 24.1461V11.4642C44.8502 11.311 45.0646 11.2651 45.1412 11.4029L51.1299 24.2226C51.1605 24.2839 51.2065 24.3145 51.2677 24.3145H55.3112C55.4031 24.3145 55.4644 24.238 55.4644 24.1767V16.9321C56.3527 21.2819 58.8646 24.8047 63.8577 24.8047C69.295 24.8047 72.4961 20.0107 72.4961 14.7725V10.8515C72.4808 10.6065 72.3429 10.4839 72.1744 10.4839ZM29.0898 19.9953C25.2454 19.9953 22.5804 17.0393 22.5804 12.8733C22.5804 8.69194 25.2454 5.75121 29.0898 5.75121C32.9188 5.75121 35.5992 8.70725 35.5992 12.8733C35.5992 17.0393 32.9188 19.9953 29.0898 19.9953Z" fill="white"/>
</svg>
