<svg width="216" height="29" viewBox="0 0 216 29" fill="none" xmlns="http://www.w3.org/2000/svg">
<mask id="path-1-outside-1_841_87" maskUnits="userSpaceOnUse" x="-0.236084" y="-0.467896" width="216" height="30" fill="black">
<rect fill="white" x="-0.236084" y="-0.467896" width="216" height="30"/>
<path d="M29.9959 17.5961C29.7559 19.7321 28.9999 21.6281 27.7279 23.2841C26.4559 24.9161 24.7879 26.1881 22.7239 27.1001C20.6839 28.0121 18.3439 28.4681 15.7039 28.4681C12.7279 28.4681 10.1119 27.8801 7.85592 26.7041C5.62392 25.5281 3.88392 23.8961 2.63592 21.8081C1.38792 19.6961 0.763916 17.2601 0.763916 14.5001C0.763916 11.7161 1.38792 9.2801 2.63592 7.1921C3.88392 5.1041 5.62392 3.4721 7.85592 2.2961C10.1119 1.1201 12.7279 0.532104 15.7039 0.532104C18.3439 0.532104 20.6839 0.988104 22.7239 1.9001C24.7879 2.8121 26.4559 4.0841 27.7279 5.7161C28.9999 7.3241 29.7559 9.2081 29.9959 11.3681H26.5759C26.2879 9.78411 25.6639 8.4161 24.7039 7.2641C23.7439 6.0881 22.4959 5.1881 20.9599 4.5641C19.4239 3.9161 17.6599 3.5921 15.6679 3.5921C13.3399 3.5921 11.3119 4.0361 9.58392 4.9241C7.87992 5.8121 6.55992 7.0721 5.62392 8.7041C4.68792 10.3361 4.21992 12.2681 4.21992 14.5001C4.21992 16.7081 4.68792 18.6281 5.62392 20.2601C6.55992 21.8921 7.87992 23.1641 9.58392 24.0761C11.3119 24.9641 13.3399 25.4081 15.6679 25.4081C17.6599 25.4081 19.4239 25.0961 20.9599 24.4721C22.4959 23.8241 23.7439 22.9241 24.7039 21.7721C25.6639 20.5961 26.2879 19.2041 26.5759 17.5961H29.9959ZM32.6723 28.0001L33.6083 17.8481L32.6723 7.7321H46.4243C48.3923 7.7321 49.9163 8.1881 50.9963 9.1001C52.1003 9.9881 52.6523 11.2481 52.6523 12.8801C52.6523 14.3681 52.1003 15.5561 50.9963 16.4441C49.9163 17.3081 48.4163 17.8121 46.4963 17.9561L46.8203 17.2721C49.1243 17.2961 50.8883 17.7641 52.1123 18.6761C53.3363 19.5641 53.9483 20.8361 53.9483 22.4921C53.9483 24.2201 53.3243 25.5761 52.0763 26.5601C50.8523 27.5201 49.1363 28.0001 46.9283 28.0001H32.6723ZM35.9123 27.0281L34.6523 25.4801H46.3883C47.8043 25.4801 48.8483 25.2041 49.5203 24.6521C50.2163 24.1001 50.5643 23.3081 50.5643 22.2761C50.5643 21.2201 50.1443 20.3921 49.3043 19.7921C48.4883 19.1921 47.2043 18.8921 45.4523 18.8921H35.4443V16.5161H45.2363C46.5563 16.5161 47.5523 16.2161 48.2243 15.6161C48.9203 15.0161 49.2683 14.2241 49.2683 13.2401C49.2683 12.3041 48.9563 11.5721 48.3323 11.0441C47.7323 10.4921 46.7963 10.2161 45.5243 10.2161H34.6883L35.9123 8.7041L36.8123 17.8481L35.9123 27.0281ZM73.7244 17.5241V20.0441H63.1764L63.1404 19.9721C61.7004 19.9721 60.4404 19.7201 59.3604 19.2161C58.3044 18.7121 57.4764 18.0041 56.8764 17.0921C56.2764 16.1561 55.9764 15.0761 55.9764 13.8521C55.9764 12.6521 56.2764 11.5961 56.8764 10.6841C57.4764 9.7481 58.3044 9.0281 59.3604 8.5241C60.4404 7.9961 61.7004 7.7321 63.1404 7.7321H76.0284V28.0001H72.7164V8.7761L73.9764 10.2881H63.6444C62.3004 10.2881 61.2444 10.6121 60.4764 11.2601C59.7084 11.9081 59.3244 12.7841 59.3244 13.8881C59.3244 14.9681 59.7084 15.8441 60.4764 16.5161C61.2444 17.1881 62.3004 17.5241 63.6444 17.5241H73.7244ZM67.6404 18.4961L59.6124 28.0001H55.6164L63.7524 18.4961H67.6404ZM89.2308 28.4681C87.2148 28.4681 85.4268 28.1921 83.8668 27.6401C82.3308 27.0641 81.1188 26.2481 80.2308 25.1921C79.3428 24.1361 78.8508 22.8881 78.7548 21.4481H81.9948C82.1868 22.8401 82.9068 23.9081 84.1548 24.6521C85.4268 25.3721 87.1188 25.7321 89.2308 25.7321C91.2948 25.7321 92.9028 25.4441 94.0548 24.8681C95.2308 24.2681 95.8188 23.3441 95.8188 22.0961C95.8188 21.0641 95.3388 20.3081 94.3788 19.8281C93.4428 19.3241 91.9428 19.0721 89.8788 19.0721H85.6668V16.5881H89.7708C91.6188 16.5881 92.9868 16.2761 93.8748 15.6521C94.7868 15.0281 95.2428 14.2721 95.2428 13.3841C95.2428 12.2801 94.6908 11.4401 93.5868 10.8641C92.5068 10.2641 91.0908 9.9641 89.3388 9.9641C87.4188 9.9641 85.8468 10.3001 84.6228 10.9721C83.3988 11.6201 82.6788 12.6041 82.4628 13.9241H79.2228C79.3668 12.6521 79.8588 11.5121 80.6988 10.5041C81.5388 9.4961 82.7028 8.7041 84.1908 8.1281C85.6788 7.5521 87.4428 7.2641 89.4828 7.2641C91.3548 7.2641 92.9748 7.5161 94.3428 8.0201C95.7108 8.5001 96.7668 9.1721 97.5108 10.0361C98.2548 10.9001 98.6268 11.8841 98.6268 12.9881C98.6268 13.9241 98.3388 14.7761 97.7628 15.5441C97.2108 16.3121 96.3588 16.9241 95.2068 17.3801C94.0788 17.8361 92.6388 18.0641 90.8868 18.0641V17.4521C93.5028 17.3801 95.5428 17.7641 97.0068 18.6041C98.4948 19.4441 99.2388 20.6561 99.2388 22.2401C99.2388 23.4641 98.8428 24.5441 98.0508 25.4801C97.2828 26.4161 96.1548 27.1481 94.6668 27.6761C93.1788 28.2041 91.3668 28.4681 89.2308 28.4681ZM121.616 28.0001L120.896 20.3321L121.796 17.8481L120.896 15.4001L121.616 7.7321H125L124.064 17.8481L125 28.0001H121.616ZM122.912 17.8481C122.384 19.9601 121.568 21.8201 120.464 23.4281C119.384 25.0121 118.064 26.2481 116.504 27.1361C114.968 28.0241 113.264 28.4681 111.392 28.4681C109.4 28.4681 107.636 28.0241 106.1 27.1361C104.564 26.2241 103.352 24.9761 102.464 23.3921C101.6 21.7841 101.168 19.9361 101.168 17.8481C101.168 15.7361 101.6 13.8881 102.464 12.3041C103.352 10.7201 104.564 9.4841 106.1 8.5961C107.636 7.7081 109.4 7.2641 111.392 7.2641C113.264 7.2641 114.968 7.7081 116.504 8.5961C118.064 9.4841 119.396 10.7201 120.5 12.3041C121.604 13.8881 122.408 15.7361 122.912 17.8481ZM104.552 17.8481C104.552 19.3841 104.864 20.7401 105.488 21.9161C106.136 23.0921 107.012 24.0161 108.116 24.6881C109.244 25.3361 110.516 25.6601 111.932 25.6601C113.372 25.6601 114.692 25.3361 115.892 24.6881C117.116 24.0161 118.196 23.0921 119.132 21.9161C120.092 20.7401 120.872 19.3841 121.472 17.8481C120.872 16.3121 120.092 14.9561 119.132 13.7801C118.196 12.6041 117.116 11.6921 115.892 11.0441C114.692 10.3721 113.372 10.0361 111.932 10.0361C110.516 10.0361 109.244 10.3721 108.116 11.0441C107.012 11.6921 106.136 12.6041 105.488 13.7801C104.864 14.9561 104.552 16.3121 104.552 17.8481ZM135.426 8.8481H138.738V28.0001H135.426V8.8481ZM126.642 7.7321H147.522V10.4321H126.642V7.7321ZM149.591 28.0001V7.7321H152.903V26.9561L151.571 25.3721H161.039C162.479 25.3721 163.619 25.0121 164.459 24.2921C165.299 23.5481 165.719 22.5521 165.719 21.3041C165.719 20.0321 165.299 19.0361 164.459 18.3161C163.619 17.5721 162.479 17.2001 161.039 17.2001H151.823V14.6441H161.327C162.887 14.6441 164.243 14.9201 165.395 15.4721C166.571 16.0241 167.483 16.8041 168.131 17.8121C168.779 18.8201 169.103 19.9841 169.103 21.3041C169.103 22.6481 168.779 23.8241 168.131 24.8321C167.483 25.8401 166.571 26.6201 165.395 27.1721C164.243 27.7241 162.887 28.0001 161.327 28.0001H149.591ZM193.137 20.2961C192.873 21.9041 192.213 23.3201 191.157 24.5441C190.125 25.7681 188.805 26.7281 187.197 27.4241C185.589 28.1201 183.813 28.4681 181.869 28.4681C179.613 28.4681 177.621 28.0241 175.893 27.1361C174.165 26.2241 172.809 24.9761 171.825 23.3921C170.865 21.7841 170.385 19.9361 170.385 17.8481C170.385 15.7601 170.865 13.9241 171.825 12.3401C172.809 10.7321 174.165 9.4841 175.893 8.5961C177.621 7.7081 179.613 7.2641 181.869 7.2641C183.813 7.2641 185.589 7.6121 187.197 8.3081C188.805 8.9801 190.125 9.9281 191.157 11.1521C192.213 12.3761 192.873 13.8041 193.137 15.4361H189.717C189.357 13.7561 188.457 12.4361 187.017 11.4761C185.601 10.4921 183.885 10.0001 181.869 10.0001C180.237 10.0001 178.809 10.3241 177.585 10.9721C176.385 11.6201 175.449 12.5321 174.777 13.7081C174.105 14.8601 173.769 16.2401 173.769 17.8481C173.769 19.4561 174.105 20.8481 174.777 22.0241C175.449 23.2001 176.385 24.1121 177.585 24.7601C178.809 25.3841 180.237 25.6961 181.869 25.6961C183.909 25.6961 185.637 25.2041 187.053 24.2201C188.493 23.2361 189.381 21.9281 189.717 20.2961H193.137ZM212.686 17.5241V20.0441H202.138L202.102 19.9721C200.662 19.9721 199.402 19.7201 198.322 19.2161C197.266 18.7121 196.438 18.0041 195.838 17.0921C195.238 16.1561 194.938 15.0761 194.938 13.8521C194.938 12.6521 195.238 11.5961 195.838 10.6841C196.438 9.7481 197.266 9.0281 198.322 8.5241C199.402 7.9961 200.662 7.7321 202.102 7.7321H214.99V28.0001H211.678V8.7761L212.938 10.2881H202.606C201.262 10.2881 200.206 10.6121 199.438 11.2601C198.67 11.9081 198.286 12.7841 198.286 13.8881C198.286 14.9681 198.67 15.8441 199.438 16.5161C200.206 17.1881 201.262 17.5241 202.606 17.5241H212.686ZM206.602 18.4961L198.574 28.0001H194.578L202.714 18.4961H206.602Z"/>
</mask>
<path d="M29.9959 17.5961C29.7559 19.7321 28.9999 21.6281 27.7279 23.2841C26.4559 24.9161 24.7879 26.1881 22.7239 27.1001C20.6839 28.0121 18.3439 28.4681 15.7039 28.4681C12.7279 28.4681 10.1119 27.8801 7.85592 26.7041C5.62392 25.5281 3.88392 23.8961 2.63592 21.8081C1.38792 19.6961 0.763916 17.2601 0.763916 14.5001C0.763916 11.7161 1.38792 9.2801 2.63592 7.1921C3.88392 5.1041 5.62392 3.4721 7.85592 2.2961C10.1119 1.1201 12.7279 0.532104 15.7039 0.532104C18.3439 0.532104 20.6839 0.988104 22.7239 1.9001C24.7879 2.8121 26.4559 4.0841 27.7279 5.7161C28.9999 7.3241 29.7559 9.2081 29.9959 11.3681H26.5759C26.2879 9.78411 25.6639 8.4161 24.7039 7.2641C23.7439 6.0881 22.4959 5.1881 20.9599 4.5641C19.4239 3.9161 17.6599 3.5921 15.6679 3.5921C13.3399 3.5921 11.3119 4.0361 9.58392 4.9241C7.87992 5.8121 6.55992 7.0721 5.62392 8.7041C4.68792 10.3361 4.21992 12.2681 4.21992 14.5001C4.21992 16.7081 4.68792 18.6281 5.62392 20.2601C6.55992 21.8921 7.87992 23.1641 9.58392 24.0761C11.3119 24.9641 13.3399 25.4081 15.6679 25.4081C17.6599 25.4081 19.4239 25.0961 20.9599 24.4721C22.4959 23.8241 23.7439 22.9241 24.7039 21.7721C25.6639 20.5961 26.2879 19.2041 26.5759 17.5961H29.9959ZM32.6723 28.0001L33.6083 17.8481L32.6723 7.7321H46.4243C48.3923 7.7321 49.9163 8.1881 50.9963 9.1001C52.1003 9.9881 52.6523 11.2481 52.6523 12.8801C52.6523 14.3681 52.1003 15.5561 50.9963 16.4441C49.9163 17.3081 48.4163 17.8121 46.4963 17.9561L46.8203 17.2721C49.1243 17.2961 50.8883 17.7641 52.1123 18.6761C53.3363 19.5641 53.9483 20.8361 53.9483 22.4921C53.9483 24.2201 53.3243 25.5761 52.0763 26.5601C50.8523 27.5201 49.1363 28.0001 46.9283 28.0001H32.6723ZM35.9123 27.0281L34.6523 25.4801H46.3883C47.8043 25.4801 48.8483 25.2041 49.5203 24.6521C50.2163 24.1001 50.5643 23.3081 50.5643 22.2761C50.5643 21.2201 50.1443 20.3921 49.3043 19.7921C48.4883 19.1921 47.2043 18.8921 45.4523 18.8921H35.4443V16.5161H45.2363C46.5563 16.5161 47.5523 16.2161 48.2243 15.6161C48.9203 15.0161 49.2683 14.2241 49.2683 13.2401C49.2683 12.3041 48.9563 11.5721 48.3323 11.0441C47.7323 10.4921 46.7963 10.2161 45.5243 10.2161H34.6883L35.9123 8.7041L36.8123 17.8481L35.9123 27.0281ZM73.7244 17.5241V20.0441H63.1764L63.1404 19.9721C61.7004 19.9721 60.4404 19.7201 59.3604 19.2161C58.3044 18.7121 57.4764 18.0041 56.8764 17.0921C56.2764 16.1561 55.9764 15.0761 55.9764 13.8521C55.9764 12.6521 56.2764 11.5961 56.8764 10.6841C57.4764 9.7481 58.3044 9.0281 59.3604 8.5241C60.4404 7.9961 61.7004 7.7321 63.1404 7.7321H76.0284V28.0001H72.7164V8.7761L73.9764 10.2881H63.6444C62.3004 10.2881 61.2444 10.6121 60.4764 11.2601C59.7084 11.9081 59.3244 12.7841 59.3244 13.8881C59.3244 14.9681 59.7084 15.8441 60.4764 16.5161C61.2444 17.1881 62.3004 17.5241 63.6444 17.5241H73.7244ZM67.6404 18.4961L59.6124 28.0001H55.6164L63.7524 18.4961H67.6404ZM89.2308 28.4681C87.2148 28.4681 85.4268 28.1921 83.8668 27.6401C82.3308 27.0641 81.1188 26.2481 80.2308 25.1921C79.3428 24.1361 78.8508 22.8881 78.7548 21.4481H81.9948C82.1868 22.8401 82.9068 23.9081 84.1548 24.6521C85.4268 25.3721 87.1188 25.7321 89.2308 25.7321C91.2948 25.7321 92.9028 25.4441 94.0548 24.8681C95.2308 24.2681 95.8188 23.3441 95.8188 22.0961C95.8188 21.0641 95.3388 20.3081 94.3788 19.8281C93.4428 19.3241 91.9428 19.0721 89.8788 19.0721H85.6668V16.5881H89.7708C91.6188 16.5881 92.9868 16.2761 93.8748 15.6521C94.7868 15.0281 95.2428 14.2721 95.2428 13.3841C95.2428 12.2801 94.6908 11.4401 93.5868 10.8641C92.5068 10.2641 91.0908 9.9641 89.3388 9.9641C87.4188 9.9641 85.8468 10.3001 84.6228 10.9721C83.3988 11.6201 82.6788 12.6041 82.4628 13.9241H79.2228C79.3668 12.6521 79.8588 11.5121 80.6988 10.5041C81.5388 9.4961 82.7028 8.7041 84.1908 8.1281C85.6788 7.5521 87.4428 7.2641 89.4828 7.2641C91.3548 7.2641 92.9748 7.5161 94.3428 8.0201C95.7108 8.5001 96.7668 9.1721 97.5108 10.0361C98.2548 10.9001 98.6268 11.8841 98.6268 12.9881C98.6268 13.9241 98.3388 14.7761 97.7628 15.5441C97.2108 16.3121 96.3588 16.9241 95.2068 17.3801C94.0788 17.8361 92.6388 18.0641 90.8868 18.0641V17.4521C93.5028 17.3801 95.5428 17.7641 97.0068 18.6041C98.4948 19.4441 99.2388 20.6561 99.2388 22.2401C99.2388 23.4641 98.8428 24.5441 98.0508 25.4801C97.2828 26.4161 96.1548 27.1481 94.6668 27.6761C93.1788 28.2041 91.3668 28.4681 89.2308 28.4681ZM121.616 28.0001L120.896 20.3321L121.796 17.8481L120.896 15.4001L121.616 7.7321H125L124.064 17.8481L125 28.0001H121.616ZM122.912 17.8481C122.384 19.9601 121.568 21.8201 120.464 23.4281C119.384 25.0121 118.064 26.2481 116.504 27.1361C114.968 28.0241 113.264 28.4681 111.392 28.4681C109.4 28.4681 107.636 28.0241 106.1 27.1361C104.564 26.2241 103.352 24.9761 102.464 23.3921C101.6 21.7841 101.168 19.9361 101.168 17.8481C101.168 15.7361 101.6 13.8881 102.464 12.3041C103.352 10.7201 104.564 9.4841 106.1 8.5961C107.636 7.7081 109.4 7.2641 111.392 7.2641C113.264 7.2641 114.968 7.7081 116.504 8.5961C118.064 9.4841 119.396 10.7201 120.5 12.3041C121.604 13.8881 122.408 15.7361 122.912 17.8481ZM104.552 17.8481C104.552 19.3841 104.864 20.7401 105.488 21.9161C106.136 23.0921 107.012 24.0161 108.116 24.6881C109.244 25.3361 110.516 25.6601 111.932 25.6601C113.372 25.6601 114.692 25.3361 115.892 24.6881C117.116 24.0161 118.196 23.0921 119.132 21.9161C120.092 20.7401 120.872 19.3841 121.472 17.8481C120.872 16.3121 120.092 14.9561 119.132 13.7801C118.196 12.6041 117.116 11.6921 115.892 11.0441C114.692 10.3721 113.372 10.0361 111.932 10.0361C110.516 10.0361 109.244 10.3721 108.116 11.0441C107.012 11.6921 106.136 12.6041 105.488 13.7801C104.864 14.9561 104.552 16.3121 104.552 17.8481ZM135.426 8.8481H138.738V28.0001H135.426V8.8481ZM126.642 7.7321H147.522V10.4321H126.642V7.7321ZM149.591 28.0001V7.7321H152.903V26.9561L151.571 25.3721H161.039C162.479 25.3721 163.619 25.0121 164.459 24.2921C165.299 23.5481 165.719 22.5521 165.719 21.3041C165.719 20.0321 165.299 19.0361 164.459 18.3161C163.619 17.5721 162.479 17.2001 161.039 17.2001H151.823V14.6441H161.327C162.887 14.6441 164.243 14.9201 165.395 15.4721C166.571 16.0241 167.483 16.8041 168.131 17.8121C168.779 18.8201 169.103 19.9841 169.103 21.3041C169.103 22.6481 168.779 23.8241 168.131 24.8321C167.483 25.8401 166.571 26.6201 165.395 27.1721C164.243 27.7241 162.887 28.0001 161.327 28.0001H149.591ZM193.137 20.2961C192.873 21.9041 192.213 23.3201 191.157 24.5441C190.125 25.7681 188.805 26.7281 187.197 27.4241C185.589 28.1201 183.813 28.4681 181.869 28.4681C179.613 28.4681 177.621 28.0241 175.893 27.1361C174.165 26.2241 172.809 24.9761 171.825 23.3921C170.865 21.7841 170.385 19.9361 170.385 17.8481C170.385 15.7601 170.865 13.9241 171.825 12.3401C172.809 10.7321 174.165 9.4841 175.893 8.5961C177.621 7.7081 179.613 7.2641 181.869 7.2641C183.813 7.2641 185.589 7.6121 187.197 8.3081C188.805 8.9801 190.125 9.9281 191.157 11.1521C192.213 12.3761 192.873 13.8041 193.137 15.4361H189.717C189.357 13.7561 188.457 12.4361 187.017 11.4761C185.601 10.4921 183.885 10.0001 181.869 10.0001C180.237 10.0001 178.809 10.3241 177.585 10.9721C176.385 11.6201 175.449 12.5321 174.777 13.7081C174.105 14.8601 173.769 16.2401 173.769 17.8481C173.769 19.4561 174.105 20.8481 174.777 22.0241C175.449 23.2001 176.385 24.1121 177.585 24.7601C178.809 25.3841 180.237 25.6961 181.869 25.6961C183.909 25.6961 185.637 25.2041 187.053 24.2201C188.493 23.2361 189.381 21.9281 189.717 20.2961H193.137ZM212.686 17.5241V20.0441H202.138L202.102 19.9721C200.662 19.9721 199.402 19.7201 198.322 19.2161C197.266 18.7121 196.438 18.0041 195.838 17.0921C195.238 16.1561 194.938 15.0761 194.938 13.8521C194.938 12.6521 195.238 11.5961 195.838 10.6841C196.438 9.7481 197.266 9.0281 198.322 8.5241C199.402 7.9961 200.662 7.7321 202.102 7.7321H214.99V28.0001H211.678V8.7761L212.938 10.2881H202.606C201.262 10.2881 200.206 10.6121 199.438 11.2601C198.67 11.9081 198.286 12.7841 198.286 13.8881C198.286 14.9681 198.67 15.8441 199.438 16.5161C200.206 17.1881 201.262 17.5241 202.606 17.5241H212.686ZM206.602 18.4961L198.574 28.0001H194.578L202.714 18.4961H206.602Z" stroke="white" mask="url(#path-1-outside-1_841_87)"/>
</svg>
