<svg width="24" height="25" viewBox="0 0 24 25" fill="none" xmlns="http://www.w3.org/2000/svg">
<path fill-rule="evenodd" clip-rule="evenodd" d="M19.1036 5.33566C19.2988 5.53092 19.2988 5.8475 19.1036 6.04276L5.60355 19.5428C5.40829 19.738 5.09171 19.738 4.89645 19.5428C4.70118 19.3475 4.70118 19.0309 4.89645 18.8357L18.3964 5.33566C18.5917 5.14039 18.9083 5.14039 19.1036 5.33566Z" fill="#2F2F31"/>
<path fill-rule="evenodd" clip-rule="evenodd" d="M4.89645 5.33566C5.09171 5.14039 5.40829 5.14039 5.60355 5.33566L19.1036 18.8357C19.2988 19.0309 19.2988 19.3475 19.1036 19.5428C18.9083 19.738 18.5917 19.738 18.3964 19.5428L4.89645 6.04276C4.70118 5.8475 4.70118 5.53092 4.89645 5.33566Z" fill="#2F2F31"/>
</svg>
