<svg width="30" height="11" viewBox="0 0 30 11" fill="none" xmlns="http://www.w3.org/2000/svg">
<path fill-rule="evenodd" clip-rule="evenodd" d="M7.6534 10.0221C11.1497 10.0221 13.9839 8.05867 13.9839 5.63672C13.9839 3.21476 11.1497 1.25138 7.6534 1.25138C4.15714 1.25138 1.32286 3.21476 1.32286 5.63672C1.32286 8.05867 4.15714 10.0221 7.6534 10.0221ZM7.6534 10.6367C11.6397 10.6367 14.8712 8.39814 14.8712 5.63672C14.8712 2.8753 11.6397 0.636719 7.6534 0.636719C3.66709 0.636719 0.435547 2.8753 0.435547 5.63672C0.435547 8.39814 3.66709 10.6367 7.6534 10.6367Z" fill="white"/>
<path fill-rule="evenodd" clip-rule="evenodd" d="M22.0892 10.0221C25.5854 10.0221 28.4197 8.05867 28.4197 5.63672C28.4197 3.21476 25.5854 1.25138 22.0892 1.25138C18.5929 1.25138 15.7586 3.21476 15.7586 5.63672C15.7586 8.05867 18.5929 10.0221 22.0892 10.0221ZM22.0892 10.6367C26.0755 10.6367 29.307 8.39814 29.307 5.63672C29.307 2.8753 26.0755 0.636719 22.0892 0.636719C18.1029 0.636719 14.8713 2.8753 14.8713 5.63672C14.8713 8.39814 18.1029 10.6367 22.0892 10.6367Z" fill="white"/>
</svg>
