<svg width="95" height="31" viewBox="0 0 95 31" fill="none" xmlns="http://www.w3.org/2000/svg">
<path d="M7.00156 20.3055H0.554515V23.5291H7.00156V20.3055Z" fill="white"/>
<path d="M16.6692 20.3055H10.2263V23.5291H16.6692V20.3055Z" fill="white"/>
<path d="M16.6709 13.8585H0.550781V17.0821H16.6709V13.8585Z" fill="white"/>
<path d="M10.226 7.41199H0.554518V10.6354H10.226V7.41199Z" fill="white"/>
<path d="M16.6726 7.41199H13.4492V10.6354H16.6726V7.41199Z" fill="white"/>
<path d="M63.4693 7.39361C58.2922 7.39361 55.6184 11.0547 55.6184 15.5708C55.6184 20.0872 58.2263 23.7486 63.4693 23.7486C68.7122 23.7486 71.3201 20.0872 71.3201 15.5708C71.3203 11.0547 68.6461 7.39361 63.4693 7.39361ZM67.3859 15.5855C67.3823 18.4896 66.4037 20.8419 63.4693 20.8419C60.5348 20.8419 59.5561 18.4898 59.553 15.5855V15.571C59.5561 12.6671 60.535 10.315 63.4695 10.315C66.4037 10.315 67.3823 12.6671 67.3859 15.571V15.5783C67.3859 15.5808 67.3859 15.583 67.3859 15.5855Z" fill="white"/>
<path d="M40.2887 23.5288V0.919898C40.2887 0.919898 43.2707 0.496304 43.5019 0.46519C43.7638 0.429806 44.1116 0.616285 44.1116 0.984972V9.36615C44.7304 8.77784 45.4118 8.30361 46.1545 7.94224C46.8978 7.58128 47.7694 7.4005 48.7707 7.4005C49.6376 7.4005 50.4057 7.54753 51.0764 7.84179C51.7474 8.13543 52.3073 8.54866 52.7561 9.07962C53.2049 9.6114 53.5455 10.2459 53.7778 10.9837C54.0098 11.7214 54.1259 12.5341 54.1259 13.4215V23.5286H50.3028V13.4215C50.3028 12.4517 50.0783 11.7009 49.6295 11.1691C49.1805 10.638 48.5071 10.3722 47.6091 10.3722C46.9488 10.3722 46.33 10.5218 45.7525 10.8214C45.1743 11.1207 44.6275 11.5278 44.1116 12.0442V23.5288H40.2887Z" fill="white"/>
<path d="M91.3276 23.7465C88.6968 23.7465 87.0479 22.2155 87.0479 19.3591V10.8937H84.083C84.083 10.8937 84.7132 8.71413 84.763 8.5425C84.813 8.37107 84.9434 8.18682 85.2051 8.15042C85.4668 8.11402 87.0443 7.89399 87.0443 7.89399L87.7729 3.25865C87.7729 3.25865 89.9137 2.95687 90.2531 2.90623C90.5735 2.85824 90.8641 3.08905 90.8641 3.43822V7.89399H94.6141V10.8937H90.8641V19.245C90.8641 20.3852 91.5584 20.821 92.2238 20.821C92.6305 20.821 93.1875 20.6051 93.6032 20.4123C93.86 20.2935 94.258 20.3816 94.3609 20.7401C94.4518 21.0577 94.9352 22.7438 94.9352 22.7438C94.5181 23.013 93.1997 23.7465 91.3276 23.7465Z" fill="white"/>
<path d="M81.983 10.9443C81.2379 10.7023 79.8374 10.3149 78.5052 10.3149C77.1478 10.3149 76.0797 10.7838 76.0797 11.9124C76.0797 13.3221 78.3816 13.7325 79.9572 14.3072C81.0106 14.6913 83.8354 15.4403 83.8354 18.4785C83.8354 22.169 80.7706 23.7468 77.5012 23.7468C74.2314 23.7468 72.2997 22.5308 72.2997 22.5308C72.2997 22.5308 72.8069 20.7392 72.9096 20.3855C73.0025 20.0673 73.3724 19.9556 73.6081 20.0461C74.4496 20.3705 75.9691 20.8213 77.6867 20.8213C79.4256 20.8213 80.2669 20.2904 80.2669 19.1585C80.2669 17.652 77.9187 17.1916 76.3657 16.7017C75.2958 16.3646 72.464 15.5782 72.464 12.2368C72.464 8.94525 75.3544 7.40096 78.4434 7.40096C81.0581 7.40096 82.3407 7.94779 83.2987 8.43584C83.2987 8.43584 82.7649 10.2964 82.6856 10.5735C82.5921 10.903 82.3218 11.0541 81.983 10.9443Z" fill="white"/>
<path d="M38.7969 7.94587C38.7969 7.58979 38.4927 7.38602 38.2025 7.41917C36.9195 7.5662 36.0042 8.16997 35.412 8.73205C34.2492 7.821 32.6352 7.38602 30.8236 7.38602C27.1917 7.38602 24.354 9.13897 24.354 12.9613C24.354 15.1555 25.288 16.6675 26.7713 17.5576C25.6698 18.079 24.936 19.1854 24.936 20.2732C24.936 22.0928 26.3736 22.6627 26.3736 22.6627C26.3736 22.6627 23.8601 23.8826 23.8601 26.3233C23.8601 29.4477 26.7353 30.7109 30.2488 30.7109C35.3132 30.7109 38.7975 28.6192 38.7975 24.7784C38.7975 22.4146 36.9886 21.1096 33.0468 20.9545C30.7075 20.8621 29.1923 20.7779 28.8169 20.6537C28.3209 20.489 28.0771 20.0918 28.0771 19.6534C28.0771 19.1694 28.4747 18.7086 29.1014 18.3921C29.648 18.4889 30.225 18.5367 30.8241 18.5367C34.4591 18.5367 37.2939 16.7889 37.2939 12.9615C37.2939 12.0334 37.1263 11.2277 36.8217 10.5393C37.3557 10.2544 38.0127 10.0539 38.7973 10.0539C38.7973 10.0539 38.7969 8.27063 38.7969 7.94587ZM28.7878 23.5489C28.7878 23.5489 30.6951 23.6211 32.601 23.7093C34.7421 23.8084 35.4094 24.2698 35.4094 25.3785C35.4094 26.7331 33.5486 28.0506 30.9483 28.0506C28.4799 28.0506 27.247 27.1918 27.247 25.762C27.247 24.9417 27.6801 24.0239 28.7878 23.5489ZM30.8306 15.8687C29.11 15.8687 27.7676 14.9548 27.7676 12.9613C27.7676 10.9676 29.1112 10.0537 30.8306 10.0537C32.5502 10.0537 33.8935 10.9651 33.8935 12.9613C33.8935 14.9574 32.5518 15.8687 30.8306 15.8687Z" fill="white"/>
</svg>
