<svg width="108" height="42" viewBox="0 0 108 42" fill="none" xmlns="http://www.w3.org/2000/svg">
<path d="M56.3483 14.658C55.4564 13.9088 53.9222 13.5342 51.7459 13.5342H46.8581V28.6435H50.515V23.8984H52.1562C54.1363 23.8984 55.5991 23.4525 56.5267 22.5784C57.5792 21.5973 58.0965 20.295 58.0965 18.6539C58.0965 16.977 57.5078 15.6391 56.3483 14.658ZM52.0492 20.4734H50.4972V16.9414H51.8886C53.5833 16.9414 54.4217 17.53 54.4217 18.7252C54.4396 19.8847 53.6368 20.4734 52.0492 20.4734ZM64.34 13.5163H60.5404V28.6257H68.764V25.2007H64.34V13.5163ZM76.2385 13.5163L70.2447 28.6257H74.3476L75.1325 26.4315H80.3414L81.0549 28.6257H85.2113L79.271 13.5163H76.2385ZM76.185 23.3811L77.7548 18.2079L79.3067 23.3811H76.185Z" fill="white"/>
<path d="M87.1203 28.6261H90.9378V13.5167H87.1203V28.6261ZM105.726 16.3531C105.244 15.6573 104.62 15.0687 103.907 14.6049C102.747 13.8735 101.177 13.5167 99.1971 13.5167H94.1666V28.6261H100.036C102.158 28.6261 103.871 27.9304 105.155 26.539C106.44 25.1475 107.082 23.3102 107.082 21.009C107.1 19.1894 106.636 17.6374 105.726 16.3531ZM99.6252 25.2011H98.0019V16.9417H99.6609C100.82 16.9417 101.73 17.2985 102.355 18.0299C102.979 18.7613 103.3 19.7959 103.3 21.1338C103.282 23.8453 102.069 25.2011 99.6252 25.2011ZM15.8903 0.833374L3.52809 4.06218L0.120899 16.4958L4.40219 20.8662L0.0673828 25.1654L3.27835 37.6525L15.5871 41.0953L19.9219 36.7962L24.1853 41.1667L36.5476 37.9379L39.9547 25.5043L35.6913 21.1338L40.0261 16.8347L36.8151 4.3476L24.5064 0.904731L20.1716 5.20386L15.8903 0.833374ZM8.30887 6.45257L14.82 4.74005L17.6742 7.6656L13.5178 11.7863L8.30887 6.45257ZM22.5977 7.71912L25.4875 4.84708L31.963 6.66663L26.6649 11.9291C26.6827 11.9112 22.5977 7.71912 22.5977 7.71912ZM4.02758 15.479L5.82929 8.93215L11.0382 14.2659L6.88177 18.3867L4.02758 15.479ZM29.1266 14.4265L34.4247 9.16405L36.1194 15.7465L33.2295 18.6186C33.2117 18.6186 29.1266 14.4265 29.1266 14.4265ZM15.9617 14.3194L20.1181 10.1987L24.2032 14.3908L20.0467 18.5115L15.9617 14.3194ZM9.32568 20.9019L13.4821 16.7812L17.5672 20.9733L13.4107 25.094L9.32568 20.9019ZM22.4906 21.009L26.6471 16.8882L30.7321 21.0803L26.5757 25.2011C26.5757 25.2189 22.4906 21.009 22.4906 21.009ZM3.95622 26.2535L6.84609 23.3815L10.9312 27.5736L5.6509 32.836C5.63306 32.836 3.95622 26.2535 3.95622 26.2535ZM15.8546 27.6093L20.0111 23.4885L24.0961 27.6806L19.9397 31.8014L15.8546 27.6093ZM29.0196 27.7163L33.176 23.5956L36.0302 26.5211L34.2464 33.0679C34.2285 33.0679 29.0196 27.7163 29.0196 27.7163ZM8.07696 35.3334L13.3572 30.071L17.4423 34.2631L14.5524 37.1352L8.07696 35.3334ZM22.3836 34.3166L26.54 30.1959L31.7489 35.5297L25.2378 37.2422L22.3836 34.3166Z" fill="white"/>
</svg>
