<svg width="124" height="44" viewBox="0 0 124 44" fill="none" xmlns="http://www.w3.org/2000/svg">
<g clip-path="url(#clip0_2_186)">
<path d="M0 1.83337H26.7141V15.1904H13.3571L0 1.83337ZM0 15.1904H13.3571L26.7141 28.5475H0V15.1904ZM0 28.5475H13.3571V41.9045L0 28.5475Z" fill="white"/>
<path d="M41.7871 12.3708H52.5854V15.8022H45.8742V20.5707H52.5854V23.9263H45.8742V30.0319H41.7871V12.3708ZM54.8056 17.8708H58.666V20.4191C58.8677 19.5434 59.2802 18.8712 59.9023 18.4006C60.5403 17.9123 61.2486 17.6691 62.0216 17.6691C62.4256 17.6691 62.7623 17.7033 63.0306 17.77V21.3529C62.6456 21.3065 62.2581 21.2814 61.87 21.2771C60.8104 21.2771 60.0123 21.6212 59.4733 22.3111C58.9361 22.984 58.666 23.9929 58.666 25.3392V30.0319H54.8074V17.8708H54.8056ZM69.1245 30.3601C67.9475 30.3601 66.9209 30.082 66.0464 29.5271C65.1884 28.9722 64.5064 28.1845 64.0786 27.2562C63.6246 26.2815 63.396 25.1785 63.396 23.9513C63.396 22.7401 63.6331 21.6462 64.1037 20.6715C64.5449 19.7298 65.2452 18.9335 66.1222 18.3756C67.0126 17.8207 68.0307 17.5426 69.1753 17.5426C70.0327 17.5426 70.799 17.7284 71.4712 18.0981C72.1434 18.4691 72.6482 18.9738 72.9849 19.6118V17.8708H76.8197V30.0319H72.9849V28.3159C72.6482 28.9215 72.1269 29.4171 71.4205 29.8046C70.7141 30.1792 69.9245 30.3698 69.1245 30.3601ZM70.2349 27.1554C71.1596 27.1554 71.8745 26.8529 72.3793 26.2473C72.8841 25.6417 73.1365 24.876 73.1365 23.9513C73.1365 23.0432 72.8841 22.2861 72.3793 21.6805C71.8745 21.0748 71.1596 20.7723 70.2349 20.7723C69.3592 20.7723 68.654 21.0663 68.1156 21.6554C67.5943 22.2445 67.3334 23.009 67.3334 23.9513C67.3334 24.8937 67.5943 25.6667 68.1156 26.2723C68.654 26.8615 69.3604 27.1554 70.2349 27.1554ZM79.5196 17.8708H83.3799V19.6369C83.65 19.0136 84.0864 18.5088 84.6914 18.1232C85.3147 17.7376 86.0377 17.5426 86.8614 17.5426C88.7791 17.5426 90.0496 18.2906 90.6711 19.7885C91.0133 19.1095 91.5487 18.5479 92.2105 18.1739C92.9182 17.748 93.7309 17.5298 94.5566 17.5426C97.4331 17.5426 98.871 19.1902 98.871 22.4877V30.0319H94.9855V23.1942C94.9855 22.371 94.834 21.7654 94.5315 21.378C94.2284 20.9917 93.7743 20.7974 93.1687 20.7974C92.513 20.7974 92.0082 21.0247 91.655 21.4788C91.3018 21.9163 91.1252 22.6808 91.1252 23.7747V30.0319H87.2397V23.1691C87.2397 22.3453 87.0888 21.7477 86.7857 21.378C86.5009 20.9917 86.0542 20.7974 85.4498 20.7974C84.7763 20.7974 84.263 21.0247 83.9098 21.4788C83.5565 21.9163 83.3799 22.6808 83.3799 23.7747V30.0319H79.5208V17.8708H79.5196ZM113.373 23.3207C113.373 23.8413 113.338 24.4054 113.27 25.011H104.29C104.324 25.8018 104.592 26.4062 105.097 26.8278C105.602 27.2477 106.284 27.4585 107.141 27.4585C108.335 27.4585 109.092 27.0961 109.411 26.3732H113.196C113.01 27.5679 112.355 28.5341 111.228 29.2747C110.118 29.9977 108.755 30.3601 107.141 30.3601C105.055 30.3601 103.415 29.796 102.22 28.6691C101.043 27.5416 100.454 25.9698 100.454 23.9513C100.454 22.6393 100.723 21.5038 101.262 20.545C101.782 19.5874 102.583 18.8125 103.558 18.3248C104.551 17.8042 105.703 17.5426 107.016 17.5426C108.259 17.5426 109.361 17.7865 110.32 18.2747C111.295 18.763 112.044 19.4438 112.565 20.3183C113.104 21.194 113.373 22.1944 113.373 23.3207ZM109.561 22.6142C109.545 21.807 109.318 21.1922 108.88 20.7723C108.443 20.3525 107.812 20.1417 106.988 20.1417C106.164 20.1417 105.508 20.3684 105.02 20.8231C104.549 21.2606 104.306 21.8571 104.288 22.6142H109.561ZM115.075 17.8708H118.935V20.4191C119.137 19.5434 119.549 18.8712 120.171 18.4006C120.775 17.9252 121.522 17.6673 122.291 17.6691C122.694 17.6691 123.031 17.7033 123.3 17.77V21.3529C122.915 21.3065 122.527 21.2814 122.139 21.2771C121.079 21.2771 120.281 21.6212 119.742 22.3111C119.203 22.984 118.935 23.9929 118.935 25.3392V30.0319H115.075V17.8708Z" fill="white"/>
</g>
<defs>
<clipPath id="clip0_2_186">
<rect width="123.75" height="44" fill="white"/>
</clipPath>
</defs>
</svg>
