<svg width="90" height="35" viewBox="0 0 90 35" fill="none" xmlns="http://www.w3.org/2000/svg">
<path d="M79.7237 5.2886C74.2231 5.2886 69.747 9.78912 69.747 15.3218C69.747 20.8544 74.2231 25.3549 79.7237 25.3549C85.223 25.3549 89.6978 20.8544 89.6978 15.3218C89.6978 9.78912 85.223 5.2886 79.7237 5.2886ZM79.7237 20.5999C76.8308 20.5999 74.4747 18.2295 74.4747 15.3218C74.4747 12.4127 76.8308 10.0436 79.7237 10.0436C82.614 10.0436 84.9714 12.4127 84.9714 15.3218C84.9714 18.2308 82.6153 20.5999 79.7224 20.5999H79.7237ZM50.3459 13.2898L48.6014 12.414C47.844 12.0368 47.3692 11.7449 47.1782 11.5291C46.9962 11.338 46.8926 11.0853 46.8879 10.8212C46.8879 10.4828 47.0402 10.1973 47.3395 9.97513C47.6363 9.74262 48.0582 9.63669 48.5937 9.63669C49.573 9.63669 50.6582 10.2283 51.853 11.4206L54.7975 8.4586C54.074 7.47225 53.1279 6.6711 52.0362 6.1205C50.959 5.57785 49.7687 5.2981 48.5627 5.3041C46.7653 5.3041 45.2815 5.83502 44.1254 6.9046C42.9705 7.97418 42.3899 9.25949 42.3899 10.767C42.3899 13.1051 43.9189 15.0531 46.9873 16.5993L48.5937 17.4067C49.9782 18.1081 50.6672 18.8225 50.6672 19.5613C50.6672 19.9618 50.475 20.308 50.093 20.6154C49.7111 20.9242 49.2053 21.0701 48.5782 21.0701C47.9976 21.0701 47.3318 20.8699 46.5821 20.463C45.8351 20.0626 45.1706 19.5244 44.6234 18.8767L41.6944 22.0855C43.346 24.2556 45.5486 25.3485 48.3176 25.3485C50.3988 25.3485 52.0595 24.7788 53.2904 23.6472C54.5291 22.5169 55.1485 21.1011 55.1485 19.4076C55.1485 18.1378 54.8052 17.023 54.124 16.0762C53.4362 15.1293 52.1743 14.207 50.3459 13.2911V13.2898ZM20.7256 23.1693V5.68775H15.9902V6.8581C14.3946 5.83135 12.5374 5.28647 10.6406 5.2886C5.14129 5.2886 0.666504 9.78912 0.666504 15.3218C0.666504 20.8544 5.14129 25.3549 10.6419 25.3549C12.5159 25.3577 14.3521 24.8268 15.936 23.8242C15.936 23.9779 15.9283 24.1161 15.9283 24.2091C15.9283 27.1169 13.5722 29.4873 10.6806 29.4873C9.69739 29.485 8.73484 29.2047 7.90384 28.6786L5.56193 32.8033C7.10619 33.7463 8.87945 34.2468 10.6883 34.25C16.1889 34.25 20.7256 29.7482 20.7256 24.2156C20.7256 24.0012 20.7398 23.3695 20.7256 23.1693ZM10.6419 20.5986C7.75159 20.5986 5.39419 18.2295 5.39419 15.3218C5.39419 12.4127 7.75029 10.0436 10.6419 10.0436C13.5335 10.0436 15.8896 12.4127 15.8896 15.3218C15.8896 18.2295 13.5335 20.5999 10.6419 20.5999V20.5986ZM39.5886 5.6813H34.83V15.2197C34.8377 16.5748 34.8377 18.9142 33.8442 19.914C33.3694 20.3907 32.8494 20.8221 31.7552 20.8221C30.6533 20.8221 30.1333 20.3907 29.6597 19.914C28.6649 18.9129 28.6726 16.567 28.6791 15.2197V5.6813H23.9217V15.1913C23.9062 17.1522 23.883 20.7924 26.2701 23.208C27.6701 24.6238 29.3384 25.3472 31.7474 25.3472C34.1577 25.3472 35.8248 24.6315 37.2248 23.208C39.6119 20.7924 39.5886 17.1444 39.5732 15.1913L39.5886 5.68V5.6813ZM66.5548 19.7461C66.1729 20.038 65.2464 20.6852 64.1987 20.5392C63.3419 20.423 62.6465 19.7926 62.5394 17.6844V9.77491H68.1315V5.66579H62.5394V0.333374H57.7962V1.37971H57.7884V17.0618C57.7884 19.5549 58.4155 25.3472 64.1909 25.3472C67.1135 25.302 68.8877 23.7092 69.6309 23.0866L69.7302 23.0091L66.8838 19.4851C66.8761 19.4916 66.6774 19.6531 66.5548 19.7461Z" fill="white"/>
</svg>
