<svg width="122" height="44" viewBox="0 0 122 44" fill="none" xmlns="http://www.w3.org/2000/svg">
<g clip-path="url(#clip0_2_199)">
<path d="M25.9801 6.41663H5.86201C3.07306 6.41663 0.812744 8.67694 0.812744 11.4659V31.5839C0.812744 34.3729 3.07306 36.6332 5.86201 36.6332H25.9801C28.769 36.6332 31.0293 34.3729 31.0293 31.5839V11.4659C31.0293 8.67694 28.769 6.41663 25.9801 6.41663ZM25.5365 29.5454C25.5365 30.4264 24.8226 31.1404 23.9415 31.1404H7.90055C7.01951 31.1404 6.30556 30.4264 6.30556 29.5454V13.5044C6.30556 12.6234 7.01951 11.9094 7.90055 11.9094H23.9415C24.8226 11.9094 25.5365 12.6234 25.5365 13.5044V29.5454ZM12.7159 25.6263C12.2085 25.6263 11.8014 25.2162 11.8014 24.7088V18.3046C11.8014 17.7972 12.2085 17.384 12.7159 17.384H19.1292C19.6335 17.384 20.0437 17.7942 20.0437 18.3046V24.7058C20.0437 25.2131 19.6335 25.6233 19.1292 25.6233H12.7159V25.6263ZM39.0407 25.1888H42.34C42.5041 27.0572 43.771 28.5155 46.326 28.5155C48.6076 28.5155 50.0111 27.3884 50.0111 25.684C50.0111 24.089 48.9114 23.3751 46.9306 22.9072L44.3725 22.3573C41.5957 21.7528 39.5055 19.9664 39.5055 17.0498C39.5055 13.8325 42.3643 11.633 46.0769 11.633C50.0081 11.633 52.5388 13.6958 52.7576 16.746H49.5676C49.1878 15.3182 48.003 14.4675 46.0799 14.4675C44.0444 14.4675 42.6438 15.5673 42.6438 16.9709C42.6438 18.3744 43.853 19.2251 45.9432 19.693L48.4739 20.2429C51.2507 20.8474 53.1464 22.5244 53.1464 25.4653C53.1464 29.2051 50.3423 31.432 46.329 31.432C41.8175 31.429 39.3172 28.9834 39.0407 25.1888ZM64.9493 36.6332V31.1616L65.165 28.7616H64.9493C64.1928 30.4872 62.6039 31.432 60.4469 31.432C56.9683 31.432 54.3799 28.6006 54.3799 24.2592C54.3799 19.9178 56.9683 17.0863 60.4469 17.0863C62.5766 17.0863 64.0865 18.0828 64.9493 19.6474H65.165V17.3537H68.0238V36.6332H64.9493ZM65.0556 24.2561C65.0556 21.4793 63.3574 19.8601 61.2793 19.8601C59.2013 19.8601 57.503 21.4793 57.503 24.2561C57.503 27.0329 59.2013 28.6522 61.2793 28.6522C63.3574 28.6522 65.0556 27.036 65.0556 24.2561ZM70.3054 25.6871V17.3537H73.3799V25.4167C73.3799 27.601 74.4311 28.6522 76.1841 28.6522C78.3411 28.6522 79.7447 27.1149 79.7447 24.7149V17.3537H82.8192V31.1586H79.9604V28.2998H79.7447C79.0702 30.1348 77.5876 31.429 75.2969 31.429C72.0037 31.429 70.3054 29.3267 70.3054 25.6871ZM84.6906 27.3033C84.6906 24.7149 86.4983 23.205 89.7065 23.0166L93.5071 22.7736V21.695C93.5071 20.4008 92.5623 19.62 90.8913 19.62C89.3541 19.62 88.4366 20.4008 88.1935 21.5067H85.119C85.4441 18.7026 87.7621 17.0833 90.8883 17.0833C94.4216 17.0833 96.5786 18.5932 96.5786 21.5067V31.1586H93.7198V28.5975H93.5041C92.857 30.2958 91.5081 31.429 88.9196 31.429C86.4436 31.429 84.6906 29.7581 84.6906 27.3033ZM93.5101 25.605V24.8759L90.4083 25.0916C88.7373 25.1979 87.9809 25.8207 87.9809 27.0603C87.9809 28.1114 88.8437 28.8679 90.0559 28.8679C92.2433 28.8679 93.5101 27.4674 93.5101 25.605ZM98.8723 31.1616V17.3537H101.731V19.9968H101.947C102.351 18.1891 103.727 17.3537 105.775 17.3537H107.178V20.1304H105.425C103.429 20.1304 101.947 21.4247 101.947 23.8794V31.1586H98.8723V31.1616ZM121.245 24.8243H110.754C110.915 27.358 112.696 28.7889 114.664 28.7889C116.335 28.7889 117.386 28.1145 117.982 26.9813H121.029C120.193 29.7854 117.739 31.429 114.637 31.429C110.566 31.429 107.707 28.3818 107.707 24.2561C107.707 20.1304 110.645 17.0833 114.664 17.0833C118.708 17.0833 121.351 19.8601 121.351 23.3113C121.354 23.9888 121.299 24.3382 121.245 24.8243ZM118.307 22.6946C118.2 20.7806 116.609 19.4864 114.667 19.4864C112.832 19.4864 111.298 20.6469 110.918 22.6946H118.307Z" fill="white"/>
</g>
<defs>
<clipPath id="clip0_2_199">
<rect width="121" height="44" fill="white" transform="translate(0.583496)"/>
</clipPath>
</defs>
</svg>
