<svg width="125" height="32" viewBox="0 0 125 32" fill="none" xmlns="http://www.w3.org/2000/svg">
<path fill-rule="evenodd" clip-rule="evenodd" d="M16.811 0.583374C7.98343 0.583374 0.833496 7.7333 0.833496 16.5609C0.833496 23.6309 5.40705 29.6025 11.7581 31.7195C12.557 31.8593 12.8566 31.38 12.8566 30.9606C12.8566 30.5811 12.8366 29.3229 12.8366 27.9848C8.82224 28.7237 7.78371 27.0062 7.46416 26.1074C7.28441 25.6481 6.50551 24.2301 5.82646 23.8506C5.26725 23.551 4.46838 22.8121 5.80649 22.7921C7.06472 22.7721 7.96345 23.9505 8.26303 24.4298C9.70101 26.8464 11.9978 26.1673 12.9165 25.7479C13.0563 24.7094 13.4757 24.0104 13.935 23.6109C10.38 23.2115 6.66528 21.8334 6.66528 15.7221C6.66528 13.9845 7.28441 12.5465 8.30298 11.4281C8.1432 11.0287 7.58399 9.39097 8.46275 7.19406C8.46275 7.19406 9.80087 6.77465 12.8566 8.83176C14.1348 8.47226 15.4928 8.29252 16.8509 8.29252C18.209 8.29252 19.5671 8.47226 20.8453 8.83176C23.901 6.75468 25.2391 7.19406 25.2391 7.19406C26.1179 9.39097 25.5587 11.0287 25.3989 11.4281C26.4175 12.5465 27.0366 13.9645 27.0366 15.7221C27.0366 21.8534 23.3019 23.2115 19.7469 23.6109C20.326 24.1102 20.8253 25.0689 20.8253 26.5668C20.8253 28.7038 20.8054 30.4213 20.8054 30.9606C20.8054 31.38 21.1049 31.8793 21.9038 31.7195C25.0756 30.6487 27.8318 28.6103 29.7844 25.891C31.737 23.1717 32.7876 19.9086 32.7885 16.5609C32.7885 7.7333 25.6386 0.583374 16.811 0.583374Z" fill="white"/>
<path d="M75.3179 24.2728H75.2806C75.2974 24.2728 75.3086 24.2914 75.3254 24.2933H75.3366L75.3179 24.2747V24.2728ZM75.3254 24.2933C75.152 24.2952 74.7158 24.3865 74.2554 24.3865C72.8015 24.3865 72.2982 23.7155 72.2982 22.8394V17.003H75.262C75.4298 17.003 75.5602 16.8539 75.5602 16.6489V13.48C75.5602 13.3122 75.4111 13.1631 75.262 13.1631H72.2982V9.22999C72.2982 9.08087 72.205 8.98767 72.0372 8.98767H68.0109C67.8431 8.98767 67.7499 9.08087 67.7499 9.22999V13.275C67.7499 13.275 65.7181 13.7783 65.5876 13.7969C65.4385 13.8342 65.3453 13.9647 65.3453 14.1138V16.6489C65.3453 16.8539 65.4944 17.003 65.6622 17.003H67.7313V23.1171C67.7313 27.6654 70.9001 28.1314 73.0624 28.1314C74.0504 28.1314 75.2434 27.8145 75.4298 27.7213C75.5416 27.684 75.5975 27.5535 75.5975 27.423V24.627C75.6001 24.5477 75.574 24.4701 75.524 24.4085C75.474 24.3468 75.4035 24.3053 75.3254 24.2914V24.2933ZM119.496 20.1906C119.496 16.8166 118.135 16.3693 116.7 16.5184C115.581 16.593 114.686 17.1522 114.686 17.1522V23.7136C114.686 23.7136 115.6 24.3474 116.961 24.3846C118.881 24.4406 119.496 23.7509 119.496 20.1906ZM124.025 19.8923C124.025 26.286 121.956 28.1127 118.34 28.1127C115.283 28.1127 113.643 26.5656 113.643 26.5656C113.643 26.5656 113.568 27.423 113.475 27.5349C113.419 27.6467 113.326 27.684 113.214 27.684H110.455C110.269 27.684 110.101 27.5349 110.101 27.3671L110.138 6.65762C110.138 6.48985 110.287 6.34073 110.455 6.34073H114.426C114.593 6.34073 114.742 6.48985 114.742 6.65762V13.6851C114.742 13.6851 116.271 12.6971 118.508 12.6971L118.489 12.6598C120.726 12.6598 124.025 13.4986 124.025 19.8923ZM107.771 13.1631H103.856C103.651 13.1631 103.539 13.3122 103.539 13.5173V23.6577C103.539 23.6577 102.514 24.3846 101.116 24.3846C99.7182 24.3846 99.3081 23.7509 99.3081 22.3528V13.4986C99.3081 13.3309 99.159 13.1818 98.9912 13.1818H95.0022C94.8344 13.1818 94.6853 13.3309 94.6853 13.4986V23.0239C94.6853 27.1248 96.9781 28.15 100.128 28.15C102.719 28.15 104.826 26.7147 104.826 26.7147C104.826 26.7147 104.919 27.4417 104.975 27.5535C105.012 27.6467 105.143 27.7213 105.273 27.7213H107.771C107.976 27.7213 108.088 27.5722 108.088 27.4044L108.125 13.48C108.125 13.3122 107.976 13.1631 107.771 13.1631ZM63.5931 13.1445H59.6227C59.4549 13.1445 59.3058 13.3122 59.3058 13.5173V27.1994C59.3058 27.5722 59.5481 27.7026 59.865 27.7026H63.444C63.8168 27.7026 63.91 27.5349 63.91 27.1994V13.4614C63.91 13.2936 63.7609 13.1445 63.5931 13.1445ZM61.6359 6.84402C60.2005 6.84402 59.0635 7.98108 59.0635 9.4164C59.0635 10.8517 60.2005 11.9888 61.6359 11.9888C63.0339 11.9888 64.171 10.8517 64.171 9.4164C64.171 7.98108 63.0339 6.84402 61.6359 6.84402ZM92.3739 6.37801H88.4408C88.273 6.37801 88.1239 6.52713 88.1239 6.6949V14.3188H81.9539V6.6949C81.9539 6.52713 81.8048 6.37801 81.637 6.37801H77.6666C77.4989 6.37801 77.3497 6.52713 77.3497 6.6949V27.4044C77.3497 27.5722 77.5175 27.7213 77.6666 27.7213H81.637C81.8048 27.7213 81.9539 27.5722 81.9539 27.4044V18.5502H88.1239L88.0866 27.4044C88.0866 27.5722 88.2357 27.7213 88.4035 27.7213H92.3739C92.5417 27.7213 92.6908 27.5722 92.6908 27.4044V6.6949C92.6908 6.52713 92.5417 6.37801 92.3739 6.37801ZM57.1994 15.5491V26.2487C57.1994 26.3232 57.1808 26.4537 57.0876 26.491C57.0876 26.491 54.7575 28.15 50.9176 28.15C46.2762 28.15 40.7772 26.6961 40.7772 17.1149C40.7772 7.53371 45.5865 5.55783 50.2838 5.57647C54.3475 5.57647 55.9878 6.48985 56.2488 6.65762C56.3233 6.75082 56.3606 6.82538 56.3606 6.91858L55.5777 10.2366C55.5777 10.4043 55.41 10.6094 55.2049 10.5535C54.5339 10.3484 53.5273 9.93833 51.1599 9.93833C48.4198 9.93833 45.4746 10.7212 45.4746 16.8912C45.4746 23.0612 48.2707 23.7882 50.2838 23.7882C51.9988 23.7882 52.6139 23.5831 52.6139 23.5831V19.2958H49.8738C49.6687 19.2958 49.5196 19.1467 49.5196 18.9789V15.5491C49.5196 15.3813 49.6687 15.2322 49.8738 15.2322H56.8453C57.0503 15.2322 57.1994 15.3813 57.1994 15.5491Z" fill="white"/>
</svg>
