<svg width="125" height="124" viewBox="0 0 125 124" fill="none" xmlns="http://www.w3.org/2000/svg">
<path d="M119.119 69.5989C118.617 69.4618 118.184 69.2099 117.82 68.8433C117.457 68.4767 117.184 68.0291 117.002 67.5007C116.828 66.9809 116.765 66.414 116.815 65.8C116.873 65.0823 117.072 64.4604 117.412 63.9342C117.752 63.4079 118.197 63.0107 118.749 62.7424C119.3 62.4742 119.919 62.3679 120.605 62.4235C121.298 62.4798 121.892 62.6845 122.385 63.0376C122.886 63.3913 123.262 63.8552 123.512 64.4293C123.762 65.0035 123.858 65.6494 123.8 66.367C123.75 66.981 123.593 67.5301 123.329 68.0143C123.073 68.5071 122.735 68.9052 122.317 69.2083C121.907 69.5122 121.439 69.6909 120.913 69.7445L120.97 69.0508C121.587 68.9644 122.096 68.6727 122.497 68.1755C122.899 67.6784 123.13 67.059 123.19 66.3175C123.239 65.7115 123.162 65.1755 122.959 64.7095C122.756 64.2436 122.45 63.8695 122.039 63.5874C121.629 63.3053 121.132 63.1406 120.55 63.0933C119.968 63.0461 119.452 63.1286 119.001 63.3408C118.551 63.553 118.187 63.8727 117.912 64.2998C117.637 64.7269 117.474 65.2435 117.425 65.8495C117.364 66.599 117.492 67.2515 117.808 67.8069C118.124 68.3623 118.58 68.7284 119.176 68.9051L119.119 69.5989Z" fill="#D9D9D9"/>
<path d="M114.778 77.9111L117.328 78.3581L118.009 78.8349L118.837 78.7547L121.277 79.6195L121.112 80.2462L117.933 79.1251L114.613 78.5378L114.778 77.9111ZM117.933 79.1251C117.309 78.7624 116.789 78.3322 116.374 77.8343C115.959 77.3364 115.674 76.7984 115.52 76.2202C115.372 75.6519 115.377 75.0659 115.536 74.4624C115.702 73.828 115.994 73.3008 116.41 72.8808C116.827 72.4609 117.328 72.1749 117.914 72.0229C118.5 71.8708 119.125 71.8823 119.791 72.0572C120.464 72.2341 121.014 72.5318 121.442 72.9503C121.877 73.3708 122.173 73.8663 122.329 74.4367C122.485 75.0071 122.48 75.6096 122.313 76.244C122.155 76.8475 121.867 77.3592 121.451 77.7792C121.032 78.2068 120.52 78.5354 119.914 78.7648C119.315 78.9962 118.655 79.1163 117.933 79.1251ZM119.62 72.7071C119.071 72.5627 118.554 72.5468 118.069 72.6593C117.59 72.7816 117.179 73.0085 116.836 73.34C116.498 73.6814 116.262 74.1073 116.127 74.618C115.993 75.1286 115.986 75.6272 116.106 76.1138C116.234 76.6024 116.464 77.068 116.794 77.5105C117.132 77.955 117.546 78.3617 118.037 78.7305C118.653 78.6525 119.213 78.5021 119.719 78.2793C120.224 78.0564 120.649 77.7627 120.992 77.3982C121.344 77.0357 121.587 76.5991 121.721 76.0884C121.856 75.5778 121.856 75.0898 121.722 74.6244C121.593 74.1688 121.351 73.77 120.994 73.4281C120.635 73.0939 120.177 72.8535 119.62 72.7071Z" fill="#D9D9D9"/>
<path d="M113.778 81.3047L119.855 84.1739L119.578 84.7598L113.697 81.9829L113.877 81.6567L117.298 89.5886L116.939 90.3482L110.863 87.4791L111.139 86.8931L117.032 89.6751L116.846 90.0121L113.419 82.0643L113.778 81.3047ZM119.162 87.4961C119.418 86.9535 119.771 86.5806 120.221 86.3772C120.675 86.1845 121.181 86.1802 121.74 86.3644L121.473 86.9287C121.063 86.8234 120.697 86.8406 120.374 86.9803C120.059 87.1234 119.818 87.3722 119.65 87.7267C119.479 88.0884 119.441 88.4328 119.534 88.7599C119.631 89.0977 119.851 89.3916 120.193 89.6415L119.926 90.2058C119.429 89.8913 119.112 89.4941 118.976 89.014C118.844 88.5446 118.906 88.0387 119.162 87.4961Z" fill="#D9D9D9"/>
<path d="M113.322 95.9596L112.952 96.4919L107.61 92.7822L107.98 92.2499L113.322 95.9596ZM115.231 93.5891L111.398 99.1088L110.915 98.7734L114.748 93.2537L115.231 93.5891Z" fill="#D9D9D9"/>
<path d="M102.107 99.4026C102.644 98.8536 103.223 98.474 103.843 98.2636C104.463 98.0531 105.076 98.0153 105.683 98.1501C106.29 98.285 106.839 98.593 107.331 99.0741C107.828 99.5609 108.148 100.103 108.291 100.701C108.439 101.305 108.414 101.919 108.217 102.544C108.02 103.168 107.653 103.755 107.116 104.304C106.579 104.853 106.001 105.232 105.381 105.443C104.761 105.653 104.147 105.691 103.541 105.556C102.939 105.427 102.39 105.119 101.893 104.632C101.401 104.151 101.081 103.609 100.933 103.005C100.785 102.401 100.809 101.787 101.006 101.163C101.203 100.538 101.57 99.9515 102.107 99.4026ZM102.545 99.8306C102.086 100.299 101.774 100.789 101.61 101.3C101.446 101.811 101.426 102.312 101.55 102.803C101.674 103.294 101.945 103.743 102.363 104.152C102.78 104.56 103.235 104.821 103.729 104.935C104.222 105.048 104.723 105.017 105.23 104.842C105.737 104.667 106.22 104.345 106.679 103.876C107.132 103.413 107.444 102.923 107.613 102.406C107.777 101.895 107.797 101.394 107.673 100.903C107.549 100.412 107.278 99.9629 106.861 99.5544C106.443 99.146 105.988 98.8851 105.495 98.7717C105.001 98.6582 104.501 98.6892 103.994 98.8644C103.481 99.0454 102.998 99.3674 102.545 99.8306Z" fill="#D9D9D9"/>
<path d="M97.5257 104.104L99.258 106.996L101.439 109.567L97.9758 112.047C97.4425 112.429 96.9442 112.599 96.481 112.557C96.0225 112.521 95.6349 112.283 95.3181 111.84C95.0292 111.437 94.944 111.016 95.0625 110.577C95.1809 110.138 95.4789 109.722 95.9564 109.331L95.9929 109.526C95.3704 109.963 94.8137 110.174 94.3226 110.162C93.8297 110.161 93.4225 109.936 93.1011 109.487C92.7657 109.019 92.6697 108.541 92.8132 108.055C92.9567 107.568 93.3276 107.111 93.926 106.682L97.5257 104.104ZM97.1359 104.693L97.5267 104.826L94.2294 107.188C93.8066 107.491 93.5485 107.804 93.455 108.127C93.355 108.454 93.4191 108.777 93.6474 109.096C93.899 109.447 94.2298 109.613 94.6399 109.595C95.05 109.577 95.525 109.375 96.0648 108.988L98.8548 106.989L99.1902 107.458L96.3319 109.505C95.9482 109.78 95.7166 110.089 95.637 110.431C95.5557 110.784 95.6314 111.124 95.8644 111.449C96.0787 111.748 96.3425 111.904 96.656 111.915C96.9629 111.932 97.3049 111.805 97.6821 111.534L100.755 109.333L100.749 109.736L98.7312 107.373L97.1359 104.693Z" fill="#D9D9D9"/>
<path d="M87.8716 118.044L87.264 118.269L84.9269 111.969L85.5344 111.743L87.8716 118.044ZM82.3812 120.08L81.7736 120.306L79.4365 114.005L80.044 113.78L82.3812 120.08ZM86.4852 115.307L80.9611 117.356L80.7566 116.805L86.2807 114.756L86.4852 115.307Z" fill="#D9D9D9"/>
<path d="M69.5916 116.232L70.2393 118.738L70.0869 119.556L70.5022 120.276L70.7242 122.855L70.0854 122.965L69.7912 119.606L68.9529 116.341L69.5916 116.232ZM69.7912 119.606C69.8631 118.888 70.0399 118.237 70.3216 117.653C70.6032 117.069 70.9754 116.587 71.438 116.208C71.8942 115.838 72.4298 115.6 73.0448 115.495C73.6915 115.384 74.2921 115.432 74.8466 115.637C75.4012 115.843 75.8688 116.181 76.2496 116.651C76.6303 117.122 76.8787 117.696 76.9947 118.374C77.112 119.061 77.0685 119.685 76.8644 120.247C76.6616 120.818 76.3329 121.292 75.8781 121.67C75.4233 122.048 74.8726 122.292 74.226 122.403C73.6109 122.508 73.0261 122.458 72.4715 122.252C71.9091 122.048 71.398 121.718 70.9384 121.26C70.4802 120.811 70.0977 120.26 69.7912 119.606ZM76.3323 118.488C76.2365 117.928 76.0373 117.451 75.7344 117.056C75.425 116.671 75.0484 116.39 74.6044 116.214C74.1539 116.048 73.6684 116.009 73.148 116.098C72.6275 116.187 72.1707 116.387 71.7774 116.698C71.3855 117.016 71.0564 117.418 70.7902 117.901C70.5252 118.393 70.3263 118.938 70.1934 119.537C70.5191 120.066 70.8879 120.514 71.2998 120.882C71.7117 121.25 72.1547 121.515 72.6289 121.678C73.1044 121.848 73.6024 121.888 74.1228 121.799C74.6433 121.711 75.0876 121.509 75.4559 121.194C75.8176 120.889 76.0803 120.503 76.2441 120.037C76.3999 119.572 76.4293 119.056 76.3323 118.488Z" fill="#D9D9D9"/>
<path d="M52.5383 116.019L52.9305 116.074L49.298 122.134L48.6086 122.038L52.4137 115.784L53.0792 115.877L54.8576 122.668L54.4535 122.611L58.0352 116.568L58.7008 116.661L60.6479 123.718L59.9586 123.622L58.1242 116.799L58.5164 116.854L54.9908 122.929L54.2658 122.827L52.5383 116.019Z" fill="#D9D9D9"/>
<path d="M44.5749 113.504C45.2914 113.758 45.8755 114.122 46.3273 114.596C46.7715 115.067 47.0601 115.606 47.1932 116.213C47.3187 116.818 47.2666 117.444 47.0371 118.093C46.8048 118.749 46.4587 119.271 45.9986 119.66C45.5283 120.054 44.9874 120.299 44.3758 120.397C43.7642 120.494 43.119 120.423 42.4403 120.183C41.7842 119.951 41.258 119.603 40.8616 119.14C40.4653 118.678 40.2184 118.14 40.1209 117.529C40.0207 116.925 40.0894 116.287 40.3269 115.616L46.6505 117.854L46.4584 118.397L40.2818 116.211L40.8884 116.044C40.7241 116.58 40.6858 117.084 40.7732 117.556C40.8606 118.028 41.0668 118.441 41.3918 118.793C41.7066 119.151 42.1241 119.422 42.6445 119.606C43.2101 119.806 43.7441 119.868 44.2465 119.791C44.7414 119.712 45.1778 119.51 45.5557 119.185C45.9261 118.858 46.2087 118.419 46.4036 117.869C46.5984 117.318 46.6435 116.795 46.5388 116.3C46.434 115.804 46.1992 115.365 45.8344 114.981C45.4619 114.595 44.9741 114.295 44.3707 114.081C43.8127 113.884 43.2538 113.796 42.6942 113.819C42.1346 113.841 41.5938 113.943 41.0718 114.123L41.276 113.546C41.7856 113.353 42.3391 113.252 42.9364 113.243C43.531 113.241 44.0772 113.328 44.5749 113.504Z" fill="#D9D9D9"/>
<path d="M34.6824 119.719L34.1197 119.398L36.7022 114.875L36.9626 114.734L37.3494 114.057L37.4222 113.614L38.7016 111.374L39.2643 111.695L34.6824 119.719ZM37.421 114.512C36.9091 115.021 36.361 115.408 35.7767 115.673C35.1883 115.945 34.595 116.081 33.9966 116.08C33.3983 116.079 32.8316 115.926 32.2967 115.621C31.7271 115.296 31.2933 114.877 30.9955 114.366C30.6976 113.856 30.5511 113.297 30.5559 112.692C30.5567 112.094 30.7297 111.492 31.0748 110.888C31.416 110.291 31.846 109.836 32.3649 109.524C32.8837 109.213 33.4389 109.055 34.0303 109.052C34.6217 109.049 35.2022 109.21 35.7719 109.535C36.3068 109.841 36.7286 110.247 37.0374 110.755C37.3422 111.27 37.5269 111.85 37.5916 112.495C37.6563 113.14 37.5994 113.812 37.421 114.512ZM31.6584 111.221C31.3727 111.721 31.227 112.219 31.2212 112.713C31.2085 113.203 31.3232 113.655 31.5654 114.07C31.7968 114.488 32.1417 114.828 32.6002 115.089C33.0587 115.351 33.5405 115.484 34.0456 115.486C34.5467 115.496 35.0537 115.399 35.5666 115.194C36.0796 114.99 36.5796 114.695 37.0667 114.31C37.1469 113.701 37.1467 113.121 37.0662 112.568C36.9817 112.022 36.8099 111.533 36.5508 111.099C36.2877 110.673 35.9269 110.328 35.4684 110.067C35.0099 109.805 34.544 109.677 34.0706 109.683C33.5864 109.692 33.1365 109.827 32.7208 110.087C32.2942 110.35 31.94 110.728 31.6584 111.221Z" fill="#D9D9D9"/>
<path d="M22.3658 111.171C22.8649 111.571 23.3525 111.763 23.8285 111.745C24.2933 111.728 24.7486 111.442 25.1942 110.887L29.453 105.58L29.9583 105.986L25.8047 111.161C25.4893 111.554 25.1358 111.86 24.7444 112.08C24.353 112.299 23.9331 112.388 23.4846 112.346C23.0299 112.299 22.553 112.075 22.0539 111.674C21.7918 111.464 21.5841 111.256 21.4308 111.051C21.2712 110.841 21.1378 110.637 21.0307 110.438L21.4288 109.942C21.5246 110.193 21.6517 110.418 21.81 110.617C21.9622 110.811 22.1474 110.996 22.3658 111.171ZM27.5247 111.434L27.1567 111.892L22.7955 108.392L23.1636 107.934L27.5247 111.434Z" fill="#D9D9D9"/>
<path d="M18.5051 108.39L18.0469 107.932L24.5806 101.398L25.0388 101.856L18.5051 108.39Z" fill="#D9D9D9"/>
<path d="M19.5716 95.6436C20.0347 96.2563 20.3242 96.8849 20.4401 97.5293C20.5561 98.1737 20.5023 98.7859 20.2788 99.3659C20.0553 99.9459 19.6691 100.443 19.1202 100.858C18.565 101.278 17.981 101.513 17.3684 101.565C16.7494 101.622 16.1458 101.507 15.5575 101.219C14.9693 100.932 14.4436 100.482 13.9806 99.8688C13.5176 99.2561 13.2281 98.6276 13.1121 97.9832C12.9962 97.3388 13.0499 96.7266 13.2734 96.1466C13.4905 95.5714 13.8767 95.074 14.432 94.6543C14.9809 94.2395 15.5648 94.0038 16.1838 93.9472C16.8028 93.8905 17.4065 94.0059 17.9947 94.2934C18.583 94.5808 19.1086 95.0309 19.5716 95.6436ZM19.0834 96.0126C18.6879 95.4892 18.2497 95.1084 17.7688 94.8702C17.2879 94.6319 16.7956 94.5377 16.2918 94.5876C15.7879 94.6374 15.3031 94.8384 14.8372 95.1905C14.3712 95.5426 14.0455 95.9542 13.86 96.4252C13.6746 96.8963 13.6308 97.3957 13.7287 97.9233C13.8266 98.451 14.0733 98.9765 14.4689 99.4998C14.8595 100.017 15.2977 100.398 15.7834 100.642C16.2643 100.881 16.7566 100.975 17.2605 100.925C17.7643 100.875 18.2492 100.674 18.7151 100.322C19.181 99.9699 19.5067 99.5583 19.6922 99.0872C19.8777 98.6161 19.9214 98.1168 19.8235 97.5891C19.7208 97.0551 19.4741 96.5296 19.0834 96.0126Z" fill="#D9D9D9"/>
<path d="M11.7647 83.1166L11.9325 83.4754L4.87168 83.7303L4.57686 83.0998L11.8943 82.8838L12.179 83.4926L7.45274 88.6833L7.27992 88.3137L14.2986 88.0254L14.5833 88.6342L9.72607 94.1113L9.43125 93.4809L14.1538 88.2256L14.3215 88.5844L7.3065 88.9371L6.99643 88.274L11.7647 83.1166Z" fill="#D9D9D9"/>
<path d="M5.9261 72.7559C6.05857 73.5489 5.53803 74.2928 4.73318 74.4273C3.95201 74.5578 3.19228 74.0155 3.06179 73.2343C2.9313 72.4532 3.47354 71.6934 4.25472 71.563C5.08324 71.4246 5.79957 71.9984 5.9261 72.7559ZM5.48817 72.829C5.38734 72.2254 4.84865 71.9139 4.32787 72.0009C3.79525 72.0899 3.41075 72.6286 3.49972 73.1612C3.59067 73.7056 4.12741 74.0783 4.66003 73.9893C5.21632 73.8964 5.58307 73.3972 5.48817 72.829Z" fill="#D9D9D9"/>
<path d="M5.68559 55.344C6.19019 55.4734 6.62707 55.7185 6.9962 56.0795C7.36534 56.4405 7.64489 56.8838 7.83485 57.4093C8.01735 57.9264 8.08842 58.4923 8.04805 59.107C8.00086 59.8254 7.81149 60.4503 7.47995 60.9818C7.14841 61.5132 6.70898 61.9172 6.16167 62.194C5.61436 62.4707 4.99744 62.5865 4.31092 62.5414C3.61642 62.4958 3.01995 62.3003 2.52151 61.9549C2.0151 61.6089 1.6323 61.1509 1.37311 60.5807C1.11392 60.0104 1.00793 59.3661 1.05511 58.6477C1.09549 58.033 1.24395 57.4815 1.5005 56.9933C1.74959 56.4966 2.08072 56.0934 2.4939 55.7838C2.8991 55.4737 3.36428 55.2878 3.88946 55.2261L3.84384 55.9206C3.22824 56.0164 2.72352 56.316 2.32969 56.8193C1.93586 57.3225 1.71456 57.9454 1.6658 58.6878C1.62595 59.2945 1.71109 59.8292 1.92121 60.292C2.13133 60.7547 2.4438 61.124 2.85862 61.3998C3.27344 61.6756 3.77222 61.8326 4.35496 61.8709C4.93771 61.9091 5.45274 61.8187 5.90007 61.5995C6.34739 61.3804 6.70548 61.0552 6.97432 60.6239C7.24317 60.1925 7.39751 59.6735 7.43736 59.0669C7.48665 58.3165 7.34898 57.666 7.02436 57.1156C6.69974 56.5651 6.23828 56.2061 5.63997 56.0385L5.68559 55.344Z" fill="#D9D9D9"/>
<path d="M9.89474 46.9647L7.33809 46.5565L6.64977 46.0901L5.82349 46.1829L3.37031 45.3553L3.52551 44.7261L6.72162 45.7988L10.0499 46.3356L9.89474 46.9647ZM6.72162 45.7988C7.35138 46.1519 7.87755 46.5742 8.30013 47.0658C8.72271 47.5573 9.01543 48.0909 9.17827 48.6667C9.33527 49.2327 9.33904 49.8187 9.18959 50.4245C9.03248 51.0614 8.74892 51.593 8.33891 52.0192C7.9289 52.4454 7.43214 52.739 6.84861 52.8999C6.26509 53.0608 5.63933 53.0589 4.97136 52.8941C4.29561 52.7274 3.74075 52.4381 3.30678 52.0262C2.86504 51.6124 2.56179 51.1215 2.39703 50.5535C2.23226 49.9855 2.22844 49.383 2.38555 48.7461C2.535 48.1403 2.81473 47.6243 3.22474 47.198C3.63666 46.7641 4.14397 46.4278 4.74665 46.1892C5.34157 45.9487 5.99989 45.8185 6.72162 45.7988ZM5.1323 52.2417C5.68377 52.3777 6.20088 52.3858 6.68364 52.2659C7.16055 52.1364 7.56825 51.9033 7.90675 51.5665C8.2394 51.2201 8.46895 50.7906 8.5954 50.278C8.72186 49.7653 8.72127 49.2667 8.59363 48.782C8.45823 48.2954 8.22201 47.8334 7.88497 47.3959C7.54016 46.9566 7.11981 46.5562 6.6239 46.195C6.0091 46.2822 5.4508 46.4412 4.94898 46.6717C4.44717 46.9022 4.02706 47.2023 3.68867 47.572C3.3425 47.9398 3.10619 48.3801 2.97974 48.8927C2.85328 49.4053 2.86063 49.8933 3.00178 50.3566C3.13708 50.8102 3.3857 51.2052 3.74765 51.5417C4.11151 51.8704 4.57306 52.1037 5.1323 52.2417Z" fill="#D9D9D9"/>
<path d="M10.7947 43.6434L4.676 40.865L4.94392 40.2749L10.866 42.9641L10.6903 43.2929L7.15178 35.4127L7.49908 34.6479L13.6178 37.4263L13.3499 38.0164L7.41691 35.3223L7.59753 34.9826L11.142 42.8785L10.7947 43.6434ZM5.31927 37.5328C5.0712 38.0791 4.72375 38.4573 4.27692 38.6673C3.82612 38.8668 3.31996 38.8786 2.75844 38.7027L3.01644 38.1345C3.42829 38.2337 3.79442 38.211 4.11481 38.0665C4.42792 37.9188 4.66551 37.6664 4.82759 37.3095C4.99297 36.9453 5.02661 36.6003 4.92849 36.2746C4.8264 35.9383 4.60251 35.6478 4.25681 35.4029L4.5148 34.8348C5.01678 35.1418 5.33937 35.5343 5.48256 36.0122C5.62177 36.4796 5.56734 36.9865 5.31927 37.5328Z" fill="#D9D9D9"/>
<path d="M11.1586 28.7439L11.5223 28.2076L16.905 31.8585L16.5413 32.3948L11.1586 28.7439ZM9.27563 31.1353L13.0477 25.5738L13.5344 25.9039L9.76226 31.4653L9.27563 31.1353Z" fill="#D9D9D9"/>
<path d="M22.1901 25.3071C21.6611 25.8638 21.0881 26.2519 20.4712 26.4713C19.8543 26.6907 19.2416 26.7374 18.6329 26.6114C18.0242 26.4854 17.4705 26.1855 16.9718 25.7115C16.4673 25.232 16.1396 24.6943 15.9886 24.0983C15.8318 23.4968 15.8473 22.8825 16.0351 22.2552C16.2228 21.628 16.5812 21.036 17.1103 20.4793C17.6394 19.9227 18.2124 19.5346 18.8292 19.3152C19.4461 19.0958 20.0589 19.0491 20.6676 19.1751C21.2705 19.2955 21.8241 19.5955 22.3286 20.075C22.8274 20.5489 23.1551 21.0867 23.3119 21.6882C23.4686 22.2897 23.4531 22.904 23.2654 23.5312C23.0776 24.1585 22.7192 24.7504 22.1901 25.3071ZM21.7465 24.8855C22.1984 24.41 22.5027 23.9156 22.6594 23.4024C22.8162 22.8891 22.8289 22.388 22.6976 21.899C22.5663 21.41 22.289 20.9644 21.8657 20.5621C21.4424 20.1598 20.9832 19.9055 20.4882 19.7993C19.9932 19.693 19.4934 19.7312 18.9888 19.9138C18.4841 20.0964 18.0058 20.4254 17.5539 20.901C17.1075 21.3707 16.8032 21.8651 16.641 22.3841C16.4843 22.8974 16.4716 23.3985 16.6028 23.8875C16.7341 24.3764 17.0114 24.8221 17.4347 25.2244C17.8581 25.6267 18.3172 25.881 18.8122 25.9872C19.3072 26.0935 19.8071 26.0553 20.3117 25.8727C20.8218 25.6843 21.3001 25.3552 21.7465 24.8855Z" fill="#D9D9D9"/>
<path d="M26.6904 20.5262L24.9161 17.6595L22.6978 15.1208L26.1243 12.5898C26.652 12.2001 27.1477 12.0229 27.6115 12.0583C28.0705 12.0872 28.4616 12.3205 28.7848 12.7581C29.0795 13.157 29.1708 13.5769 29.0588 14.0177C28.9468 14.4585 28.6549 14.878 28.1832 15.2761L28.1438 15.0814C28.7599 14.6363 29.3135 14.4164 29.8047 14.4216C30.2975 14.4156 30.7079 14.6346 31.0359 15.0786C31.3781 15.5419 31.481 16.0178 31.3447 16.5065C31.2083 16.9951 30.8441 17.458 30.2521 17.8953L26.6904 20.5262ZM27.0715 19.9313L26.6788 19.8037L29.9413 17.3938C30.3596 17.0849 30.6131 16.7683 30.7019 16.4442C30.7971 16.1152 30.7283 15.7931 30.4954 15.4778C30.2387 15.1303 29.9055 14.9687 29.4957 14.9929C29.0859 15.0171 28.6139 15.2265 28.0798 15.621L25.3193 17.6601L24.977 17.1968L27.8052 15.1078C28.1848 14.8273 28.4119 14.5154 28.4864 14.1719C28.5626 13.8173 28.4819 13.4791 28.2442 13.1573C28.0256 12.8613 27.7595 12.7098 27.4459 12.7027C27.1388 12.6908 26.7987 12.8227 26.4254 13.0984L23.3849 15.3443L23.3855 14.9411L25.4373 17.2745L27.0715 19.9313Z" fill="#D9D9D9"/>
<path d="M36.2749 6.34668L36.8799 6.11449L39.2878 12.3883L38.6828 12.6205L36.2749 6.34668ZM41.7421 4.24835L42.347 4.01616L44.7549 10.2899L44.15 10.5221L41.7421 4.24835ZM37.692 9.06759L43.1927 6.95637L43.4034 7.50532L37.9026 9.61655L37.692 9.06759Z" fill="#D9D9D9"/>
<path d="M54.5244 7.93195L53.8479 5.43286L53.9909 4.61378L53.5674 3.8983L53.3159 1.32152L53.9533 1.20498L54.2861 4.55983L55.1618 7.81541L54.5244 7.93195ZM54.2861 4.55983C54.2224 5.27901 54.053 5.93211 53.7781 6.51912C53.5032 7.10613 53.1366 7.59199 52.6783 7.97668C52.2265 8.35206 51.6936 8.59586 51.0798 8.70808C50.4345 8.82606 49.8334 8.7855 49.2765 8.58641C48.7196 8.38731 48.2481 8.05468 47.862 7.58853C47.4759 7.12237 47.2209 6.5509 47.0972 5.87412C46.972 5.18946 47.0083 4.56476 47.2059 4.00001C47.4022 3.42738 47.7255 2.94944 48.1759 2.56619C48.6263 2.18294 49.1742 1.93232 49.8195 1.81435C50.4333 1.70212 51.0187 1.74556 51.5755 1.94466C52.1403 2.14231 52.6551 2.46703 53.1199 2.9188C53.5833 3.3627 53.972 3.90971 54.2861 4.55983ZM47.7583 5.75326C47.8604 6.312 48.0651 6.78692 48.3725 7.17802C48.6863 7.55982 49.0661 7.83601 49.5121 8.00659C49.9645 8.16786 50.4504 8.20102 50.9697 8.10606C51.4891 8.01111 51.9437 7.80602 52.3333 7.4908C52.7216 7.16771 53.046 6.76276 53.3067 6.27594C53.566 5.78125 53.7586 5.23367 53.8847 4.63321C53.5529 4.10832 53.179 3.66433 52.7629 3.30124C52.3468 2.93815 51.9008 2.67813 51.4248 2.52117C50.9473 2.35635 50.4489 2.32141 49.9295 2.41637C49.4101 2.51132 48.9681 2.71819 48.6035 3.03696C48.2453 3.34642 47.9871 3.73521 47.8287 4.20333C47.6781 4.67001 47.6547 5.18665 47.7583 5.75326Z" fill="#D9D9D9"/>
<path d="M71.3556 7.85813L70.9626 7.80942L74.5016 1.6943L75.1924 1.77991L71.4838 8.09167L70.8169 8.00901L68.9345 1.24611L69.3394 1.2963L65.8509 7.3935L65.184 7.31084L63.1287 0.284668L63.8194 0.370279L65.7584 7.16438L65.3654 7.11567L68.7973 0.987268L69.5237 1.07731L71.3556 7.85813Z" fill="#D9D9D9"/>
<path d="M79.5119 10.2591C78.7926 10.0136 78.2044 9.65653 77.7473 9.18776C77.2978 8.72158 77.0031 8.18567 76.8632 7.58003C76.7309 6.97697 76.7759 6.34988 76.9981 5.69876C77.2229 5.04006 77.5631 4.51375 78.0188 4.11981C78.4846 3.72088 79.0228 3.46921 79.6332 3.36478C80.2437 3.26036 80.8896 3.32442 81.571 3.55698C82.2297 3.78178 82.7598 4.12331 83.1613 4.58156C83.5628 5.0398 83.8158 5.57415 83.9202 6.1846C84.0272 6.78748 83.9657 7.42584 83.7358 8.09967L77.3873 5.93302L77.5733 5.38789L83.7742 7.50416L83.1695 7.6782C83.3277 7.14046 83.3604 6.63598 83.2676 6.16476C83.1749 5.69354 82.964 5.28346 82.6351 4.93451C82.3163 4.58058 81.8957 4.31447 81.3733 4.13618C80.8055 3.94238 80.2708 3.8867 79.7693 3.96913C79.2754 4.05415 78.8413 4.26103 78.467 4.58977C78.1004 4.9211 77.8227 5.36311 77.6341 5.91581C77.4455 6.46851 77.4063 6.99191 77.5166 7.48603C77.6269 7.98015 77.8667 8.417 78.2359 8.79659C78.6126 9.17876 79.1038 9.47321 79.7095 9.67992C80.2698 9.87114 80.8296 9.9523 81.3889 9.9234C81.9482 9.89451 82.4879 9.78705 83.0078 9.60102L82.8101 10.1802C82.3027 10.379 81.7505 10.4864 81.1533 10.5023C80.5587 10.5107 80.0116 10.4297 79.5119 10.2591Z" fill="#D9D9D9"/>
<path d="M89.2227 3.83618L89.7901 4.14918L87.2745 8.70936L87.0162 8.85467L86.6394 9.53764L86.5732 9.98075L85.327 12.2398L84.7596 11.9268L89.2227 3.83618ZM86.5612 9.08331C87.0654 8.56663 87.6078 8.17143 88.1882 7.89773C88.7725 7.61702 89.3637 7.47266 89.962 7.46464C90.5603 7.45663 91.1291 7.60139 91.6685 7.89893C92.2429 8.21579 92.6828 8.62746 92.9881 9.13395C93.2935 9.64043 93.4482 10.1963 93.4524 10.8016C93.4604 11.3999 93.2963 12.0038 92.9601 12.6132C92.6278 13.2156 92.2045 13.6765 91.6903 13.9958C91.1761 14.3152 90.6234 14.4808 90.0321 14.4927C89.4408 14.5046 88.858 14.3521 88.2836 14.0352C87.7442 13.7377 87.3164 13.3372 87.0002 12.8339C86.6878 12.3235 86.4946 11.7464 86.4204 11.1025C86.3462 10.4585 86.3931 9.78548 86.5612 9.08331ZM92.3717 12.2886C92.6499 11.7843 92.7883 11.285 92.7868 10.7908C92.7923 10.3005 92.6709 9.84977 92.4226 9.43869C92.1851 9.02446 91.8352 8.68984 91.3729 8.43481C90.9106 8.17977 90.4269 8.05457 89.9218 8.05919C89.4207 8.05681 88.9151 8.16168 88.4052 8.37379C87.8954 8.58589 87.3998 8.88809 86.9184 9.28039C86.8472 9.88979 86.8559 10.4702 86.9446 11.0216C87.0372 11.5661 87.2162 12.0531 87.4817 12.4828C87.751 12.9055 88.1168 13.2443 88.5792 13.4993C89.0415 13.7544 89.5092 13.8754 89.9824 13.8623C90.4664 13.8461 90.9144 13.7048 91.3262 13.4386C91.7488 13.1693 92.0974 12.786 92.3717 12.2886Z" fill="#D9D9D9"/>
<path d="M101.762 12.2429C101.257 11.8496 100.767 11.6655 100.291 11.6904C99.8263 11.7139 99.3753 12.0066 98.9378 12.5683L94.7569 17.9362L94.2456 17.538L98.3234 12.3026C98.6331 11.905 98.982 11.5937 99.3702 11.3688C99.7583 11.1438 100.177 11.049 100.626 11.0844C101.081 11.1247 101.561 11.3415 102.066 11.7348C102.331 11.9412 102.542 12.1459 102.698 12.3488C102.861 12.5566 102.997 12.7591 103.107 12.9564L102.717 13.4581C102.617 13.2083 102.487 12.9851 102.326 12.7885C102.171 12.5968 101.983 12.415 101.762 12.2429ZM96.5996 12.0552L96.9609 11.5913L101.373 15.0275L101.011 15.4914L96.5996 12.0552Z" fill="#D9D9D9"/>
<path d="M105.612 14.9048L106.076 15.3563L99.6384 21.9842L99.1735 21.5327L105.612 14.9048Z" fill="#D9D9D9"/>
<path d="M104.784 27.6984C104.312 27.0925 104.014 26.4682 103.888 25.8256C103.763 25.183 103.808 24.57 104.023 23.9868C104.238 23.4036 104.617 22.9006 105.16 22.4779C105.709 22.0502 106.289 21.806 106.901 21.7452C107.519 21.6795 108.124 21.7861 108.717 22.0649C109.309 22.3438 109.841 22.7862 110.313 23.3921C110.785 23.998 111.084 24.6222 111.209 25.2648C111.334 25.9075 111.29 26.5204 111.075 27.1036C110.866 27.6819 110.487 28.1849 109.938 28.6126C109.395 29.0353 108.815 29.2796 108.197 29.3452C107.578 29.4109 106.973 29.3043 106.381 29.0255C105.788 28.7466 105.256 28.3043 104.784 27.6984ZM105.267 27.3223C105.67 27.8398 106.114 28.2142 106.598 28.4454C107.083 28.6766 107.576 28.7637 108.079 28.7065C108.582 28.6493 109.064 28.4413 109.525 28.0824C109.986 27.7236 110.305 27.3073 110.484 26.8335C110.663 26.3598 110.699 25.8598 110.593 25.3337C110.488 24.8075 110.233 24.2857 109.83 23.7681C109.432 23.2569 108.988 22.8825 108.499 22.645C108.015 22.4138 107.521 22.3268 107.018 22.384C106.515 22.4411 106.033 22.6492 105.573 23.008C105.112 23.3669 104.792 23.7832 104.614 24.2569C104.435 24.7306 104.399 25.2306 104.504 25.7568C104.615 26.2892 104.869 26.8111 105.267 27.3223Z" fill="#D9D9D9"/>
<path d="M112.864 40.2648L112.692 39.908L119.75 39.5744L120.052 40.2015L112.737 40.499L112.446 39.8935L117.114 34.6504L117.291 35.0181L110.276 35.3845L109.984 34.779L114.78 29.248L115.082 29.8752L110.418 35.1827L110.246 34.8259L117.257 34.395L117.575 35.0546L112.864 40.2648Z" fill="#D9D9D9"/>
<path d="M118.813 50.3888C118.669 49.5979 119.178 48.8461 119.98 48.6994C120.759 48.5569 121.527 49.0875 121.67 49.8666C121.812 50.6456 121.282 51.4136 120.503 51.556C119.676 51.7071 118.951 51.1443 118.813 50.3888ZM119.25 50.309C119.36 50.911 119.903 51.2142 120.423 51.1193C120.954 51.0221 121.33 50.4776 121.233 49.9464C121.134 49.4034 120.591 49.039 120.06 49.1361C119.505 49.2376 119.146 49.7424 119.25 50.309Z" fill="#D9D9D9"/>
</svg>
