<svg width="981" height="76" viewBox="0 0 981 76" fill="none" xmlns="http://www.w3.org/2000/svg">
<mask id="path-1-outside-1_820_87" maskUnits="userSpaceOnUse" x="0.736816" y="0.98999" width="980" height="75" fill="black">
<rect fill="white" x="0.736816" y="0.98999" width="980" height="75"/>
<path d="M58.6168 53.74C57.9568 57.76 56.3068 61.3 53.6668 64.36C51.0868 67.42 47.7868 69.82 43.7668 71.56C39.7468 73.3 35.3068 74.17 30.4468 74.17C24.8068 74.17 19.8268 73.06 15.5068 70.84C11.1868 68.56 7.79682 65.44 5.33682 61.48C2.93682 57.46 1.73682 52.84 1.73682 47.62C1.73682 42.4 2.93682 37.81 5.33682 33.85C7.79682 29.83 11.1868 26.71 15.5068 24.49C19.8268 22.27 24.8068 21.16 30.4468 21.16C35.3068 21.16 39.7468 22.03 43.7668 23.77C47.7868 25.45 51.0868 27.82 53.6668 30.88C56.3068 33.94 57.9568 37.51 58.6168 41.59H50.0668C49.1668 37.39 46.9168 34.09 43.3168 31.69C39.7768 29.23 35.4868 28 30.4468 28C26.3668 28 22.7968 28.81 19.7368 30.43C16.7368 32.05 14.3968 34.33 12.7168 37.27C11.0368 40.15 10.1968 43.6 10.1968 47.62C10.1968 51.64 11.0368 55.12 12.7168 58.06C14.3968 61 16.7368 63.28 19.7368 64.9C22.7968 66.46 26.3668 67.24 30.4468 67.24C35.5468 67.24 39.8668 66.01 43.4068 63.55C47.0068 61.09 49.2268 57.82 50.0668 53.74H58.6168ZM113.88 73L112.08 53.83L114.33 47.62L112.08 41.5L113.88 22.33H122.34L120 47.62L122.34 73H113.88ZM117.12 47.62C115.8 52.9 113.76 57.55 111 61.57C108.3 65.53 105 68.62 101.1 70.84C97.2596 73.06 92.9996 74.17 88.3196 74.17C83.3396 74.17 78.9296 73.06 75.0896 70.84C71.2496 68.56 68.2196 65.44 65.9996 61.48C63.8396 57.46 62.7596 52.84 62.7596 47.62C62.7596 42.34 63.8396 37.72 65.9996 33.76C68.2196 29.8 71.2496 26.71 75.0896 24.49C78.9296 22.27 83.3396 21.16 88.3196 21.16C92.9996 21.16 97.2596 22.27 101.1 24.49C105 26.71 108.33 29.8 111.09 33.76C113.85 37.72 115.86 42.34 117.12 47.62ZM71.2196 47.62C71.2196 51.46 71.9996 54.85 73.5596 57.79C75.1796 60.73 77.3696 63.04 80.1296 64.72C82.9496 66.34 86.1296 67.15 89.6696 67.15C93.2696 67.15 96.5696 66.34 99.5696 64.72C102.63 63.04 105.33 60.73 107.67 57.79C110.07 54.85 112.02 51.46 113.52 47.62C112.02 43.78 110.07 40.39 107.67 37.45C105.33 34.51 102.63 32.23 99.5696 30.61C96.5696 28.93 93.2696 28.09 89.6696 28.09C86.1296 28.09 82.9496 28.93 80.1296 30.61C77.3696 32.23 75.1796 34.51 73.5596 37.45C71.9996 40.39 71.2196 43.78 71.2196 47.62ZM132.024 73V22.33H140.214V69.22L137.064 68.77L175.854 22.33H186.564V73H178.374V25.66L181.614 26.2L142.554 73H132.024ZM158.754 16.75C153.834 16.75 149.844 15.49 146.784 12.97C143.784 10.39 141.954 6.72999 141.294 1.98999H148.314C148.854 4.92999 150.024 7.20999 151.824 8.82999C153.684 10.39 155.994 11.17 158.754 11.17C161.574 11.17 163.884 10.39 165.684 8.82999C167.484 7.20999 168.654 4.92999 169.194 1.98999H176.214C175.614 6.72999 173.784 10.39 170.724 12.97C167.664 15.49 163.674 16.75 158.754 16.75ZM213.731 25.12H222.011V73H213.731V25.12ZM191.771 22.33H243.971V29.08H191.771V22.33ZM273.331 74.17C267.391 74.17 262.141 73.06 257.581 70.84C253.081 68.62 249.571 65.5 247.051 61.48C244.531 57.46 243.271 52.84 243.271 47.62C243.271 42.34 244.531 37.72 247.051 33.76C249.571 29.8 253.081 26.71 257.581 24.49C262.141 22.27 267.391 21.16 273.331 21.16C279.331 21.16 284.581 22.27 289.081 24.49C293.581 26.71 297.091 29.8 299.611 33.76C302.191 37.72 303.481 42.34 303.481 47.62C303.481 52.84 302.191 57.46 299.611 61.48C297.091 65.5 293.581 68.62 289.081 70.84C284.581 73.06 279.331 74.17 273.331 74.17ZM273.331 67.24C277.771 67.24 281.611 66.46 284.851 64.9C288.091 63.28 290.581 61 292.321 58.06C294.121 55.12 295.021 51.64 295.021 47.62C295.021 43.66 294.121 40.21 292.321 37.27C290.581 34.33 288.091 32.05 284.851 30.43C281.611 28.81 277.771 28 273.331 28C268.951 28 265.111 28.81 261.811 30.43C258.571 32.05 256.081 34.33 254.341 37.27C252.601 40.21 251.731 43.66 251.731 47.62C251.731 51.64 252.601 55.12 254.341 58.06C256.081 61 258.571 63.28 261.811 64.9C265.111 66.46 268.951 67.24 273.331 67.24ZM310.051 73L312.391 47.62L310.051 22.33H344.431C349.351 22.33 353.161 23.47 355.861 25.75C358.621 27.97 360.001 31.12 360.001 35.2C360.001 38.92 358.621 41.89 355.861 44.11C353.161 46.27 349.411 47.53 344.611 47.89L345.421 46.18C351.181 46.24 355.591 47.41 358.651 49.69C361.711 51.91 363.241 55.09 363.241 59.23C363.241 63.55 361.681 66.94 358.561 69.4C355.501 71.8 351.211 73 345.691 73H310.051ZM318.151 70.57L315.001 66.7H344.341C347.881 66.7 350.491 66.01 352.171 64.63C353.911 63.25 354.781 61.27 354.781 58.69C354.781 56.05 353.731 53.98 351.631 52.48C349.591 50.98 346.381 50.23 342.001 50.23H316.981V44.29H341.461C344.761 44.29 347.251 43.54 348.931 42.04C350.671 40.54 351.541 38.56 351.541 36.1C351.541 33.76 350.761 31.93 349.201 30.61C347.701 29.23 345.361 28.54 342.181 28.54H315.091L318.151 24.76L320.401 47.62L318.151 70.57ZM393.094 22.33H401.284V73H393.094V22.33ZM436.654 22.33H444.934V73H436.654V22.33ZM397.684 44.02H440.524V50.77H397.684V44.02ZM503.759 73L501.959 53.83L504.209 47.62L501.959 41.5L503.759 22.33H512.219L509.879 47.62L512.219 73H503.759ZM506.999 47.62C505.679 52.9 503.639 57.55 500.879 61.57C498.179 65.53 494.879 68.62 490.979 70.84C487.139 73.06 482.879 74.17 478.199 74.17C473.219 74.17 468.809 73.06 464.969 70.84C461.129 68.56 458.099 65.44 455.879 61.48C453.719 57.46 452.639 52.84 452.639 47.62C452.639 42.34 453.719 37.72 455.879 33.76C458.099 29.8 461.129 26.71 464.969 24.49C468.809 22.27 473.219 21.16 478.199 21.16C482.879 21.16 487.139 22.27 490.979 24.49C494.879 26.71 498.209 29.8 500.969 33.76C503.729 37.72 505.739 42.34 506.999 47.62ZM461.099 47.62C461.099 51.46 461.879 54.85 463.439 57.79C465.059 60.73 467.249 63.04 470.009 64.72C472.829 66.34 476.009 67.15 479.549 67.15C483.149 67.15 486.449 66.34 489.449 64.72C492.509 63.04 495.209 60.73 497.549 57.79C499.949 54.85 501.899 51.46 503.399 47.62C501.899 43.78 499.949 40.39 497.549 37.45C495.209 34.51 492.509 32.23 489.449 30.61C486.449 28.93 483.149 28.09 479.549 28.09C476.009 28.09 472.829 28.93 470.009 30.61C467.249 32.23 465.059 34.51 463.439 37.45C461.879 40.39 461.099 43.78 461.099 47.62ZM606.147 69.13H602.637L621.717 22.33H630.177L609.027 73H600.567L581.397 25.84H585.267L565.827 73H557.367L536.217 22.33H544.767L563.937 69.13H560.247L579.057 22.33H587.607L606.147 69.13ZM660.391 74.17C654.571 74.17 649.411 73.06 644.911 70.84C640.471 68.56 636.961 65.44 634.381 61.48C631.861 57.46 630.601 52.84 630.601 47.62C630.601 42.34 631.801 37.72 634.201 33.76C636.601 29.8 639.931 26.71 644.191 24.49C648.451 22.27 653.341 21.16 658.861 21.16C664.321 21.16 669.091 22.36 673.171 24.76C677.251 27.16 680.401 30.55 682.621 34.93C684.901 39.25 686.041 44.29 686.041 50.05H636.901V43.48H682.531L677.671 46.45C677.491 42.67 676.591 39.4 674.971 36.64C673.351 33.88 671.161 31.75 668.401 30.25C665.641 28.75 662.431 28 658.771 28C654.811 28 651.361 28.81 648.421 30.43C645.481 31.99 643.171 34.21 641.491 37.09C639.871 39.97 639.061 43.36 639.061 47.26C639.061 51.34 639.991 54.88 641.851 57.88C643.711 60.88 646.321 63.19 649.681 64.81C653.041 66.43 657.001 67.24 661.561 67.24C665.701 67.24 669.751 66.55 673.711 65.17C677.731 63.79 681.331 61.9 684.511 59.5V65.98C681.391 68.5 677.671 70.51 673.351 72.01C669.031 73.45 664.711 74.17 660.391 74.17ZM693.627 3.69999H701.907V41.14L700.377 43.75V51.4L701.907 54.91V73H693.627V3.69999ZM697.857 47.62C699.177 42.34 701.187 37.72 703.887 33.76C706.647 29.8 709.947 26.71 713.787 24.49C717.687 22.27 721.977 21.16 726.657 21.16C731.637 21.16 736.047 22.27 739.887 24.49C743.727 26.71 746.727 29.8 748.887 33.76C751.107 37.72 752.217 42.34 752.217 47.62C752.217 52.84 751.107 57.46 748.887 61.48C746.727 65.44 743.727 68.56 739.887 70.84C736.047 73.06 731.637 74.17 726.657 74.17C721.977 74.17 717.687 73.06 713.787 70.84C709.947 68.62 706.647 65.53 703.887 61.57C701.187 57.55 699.177 52.9 697.857 47.62ZM743.757 47.62C743.757 43.78 742.947 40.39 741.327 37.45C739.767 34.51 737.577 32.23 734.757 30.61C731.997 28.93 728.847 28.09 725.307 28.09C721.707 28.09 718.377 28.93 715.317 30.61C712.317 32.23 709.647 34.51 707.307 37.45C704.967 40.39 703.017 43.78 701.457 47.62C703.017 51.46 704.967 54.85 707.307 57.79C709.647 60.73 712.317 63.04 715.317 64.72C718.377 66.34 721.707 67.15 725.307 67.15C728.847 67.15 731.997 66.34 734.757 64.72C737.577 63.04 739.767 60.73 741.327 57.79C742.947 54.85 743.757 51.46 743.757 47.62ZM788.286 9.27999C783.846 9.27999 780.486 10.24 778.206 12.16C775.986 14.02 774.876 17.26 774.876 21.88V73H766.596V23.23C766.596 19.27 767.316 15.73 768.756 12.61C770.196 9.48999 772.446 7.02999 775.506 5.22999C778.566 3.42999 782.556 2.52999 787.476 2.52999C789.876 2.52999 791.976 2.76999 793.776 3.24999C795.636 3.66999 797.376 4.20999 798.996 4.86999V11.8C797.376 10.9 795.696 10.27 793.956 9.90999C792.276 9.48999 790.386 9.27999 788.286 9.27999ZM755.526 32.14V25.39H798.906V32.14H755.526ZM808.716 3.69999H816.996V73H808.716V3.69999ZM854.798 74.17C848.858 74.17 843.608 73.06 839.048 70.84C834.548 68.62 831.038 65.5 828.518 61.48C825.998 57.46 824.738 52.84 824.738 47.62C824.738 42.34 825.998 37.72 828.518 33.76C831.038 29.8 834.548 26.71 839.048 24.49C843.608 22.27 848.858 21.16 854.798 21.16C860.798 21.16 866.048 22.27 870.548 24.49C875.048 26.71 878.558 29.8 881.078 33.76C883.658 37.72 884.948 42.34 884.948 47.62C884.948 52.84 883.658 57.46 881.078 61.48C878.558 65.5 875.048 68.62 870.548 70.84C866.048 73.06 860.798 74.17 854.798 74.17ZM854.798 67.24C859.238 67.24 863.078 66.46 866.318 64.9C869.558 63.28 872.048 61 873.788 58.06C875.588 55.12 876.488 51.64 876.488 47.62C876.488 43.66 875.588 40.21 873.788 37.27C872.048 34.33 869.558 32.05 866.318 30.43C863.078 28.81 859.238 28 854.798 28C850.418 28 846.578 28.81 843.278 30.43C840.038 32.05 837.548 34.33 835.808 37.27C834.068 40.21 833.198 43.66 833.198 47.62C833.198 51.64 834.068 55.12 835.808 58.06C837.548 61 840.038 63.28 843.278 64.9C846.578 66.46 850.418 67.24 854.798 67.24ZM955.196 69.13H951.686L970.766 22.33H979.226L958.076 73H949.616L930.446 25.84H934.316L914.876 73H906.416L885.266 22.33H893.816L912.986 69.13H909.296L928.106 22.33H936.656L955.196 69.13Z"/>
</mask>
<path d="M58.6168 53.74C57.9568 57.76 56.3068 61.3 53.6668 64.36C51.0868 67.42 47.7868 69.82 43.7668 71.56C39.7468 73.3 35.3068 74.17 30.4468 74.17C24.8068 74.17 19.8268 73.06 15.5068 70.84C11.1868 68.56 7.79682 65.44 5.33682 61.48C2.93682 57.46 1.73682 52.84 1.73682 47.62C1.73682 42.4 2.93682 37.81 5.33682 33.85C7.79682 29.83 11.1868 26.71 15.5068 24.49C19.8268 22.27 24.8068 21.16 30.4468 21.16C35.3068 21.16 39.7468 22.03 43.7668 23.77C47.7868 25.45 51.0868 27.82 53.6668 30.88C56.3068 33.94 57.9568 37.51 58.6168 41.59H50.0668C49.1668 37.39 46.9168 34.09 43.3168 31.69C39.7768 29.23 35.4868 28 30.4468 28C26.3668 28 22.7968 28.81 19.7368 30.43C16.7368 32.05 14.3968 34.33 12.7168 37.27C11.0368 40.15 10.1968 43.6 10.1968 47.62C10.1968 51.64 11.0368 55.12 12.7168 58.06C14.3968 61 16.7368 63.28 19.7368 64.9C22.7968 66.46 26.3668 67.24 30.4468 67.24C35.5468 67.24 39.8668 66.01 43.4068 63.55C47.0068 61.09 49.2268 57.82 50.0668 53.74H58.6168ZM113.88 73L112.08 53.83L114.33 47.62L112.08 41.5L113.88 22.33H122.34L120 47.62L122.34 73H113.88ZM117.12 47.62C115.8 52.9 113.76 57.55 111 61.57C108.3 65.53 105 68.62 101.1 70.84C97.2596 73.06 92.9996 74.17 88.3196 74.17C83.3396 74.17 78.9296 73.06 75.0896 70.84C71.2496 68.56 68.2196 65.44 65.9996 61.48C63.8396 57.46 62.7596 52.84 62.7596 47.62C62.7596 42.34 63.8396 37.72 65.9996 33.76C68.2196 29.8 71.2496 26.71 75.0896 24.49C78.9296 22.27 83.3396 21.16 88.3196 21.16C92.9996 21.16 97.2596 22.27 101.1 24.49C105 26.71 108.33 29.8 111.09 33.76C113.85 37.72 115.86 42.34 117.12 47.62ZM71.2196 47.62C71.2196 51.46 71.9996 54.85 73.5596 57.79C75.1796 60.73 77.3696 63.04 80.1296 64.72C82.9496 66.34 86.1296 67.15 89.6696 67.15C93.2696 67.15 96.5696 66.34 99.5696 64.72C102.63 63.04 105.33 60.73 107.67 57.79C110.07 54.85 112.02 51.46 113.52 47.62C112.02 43.78 110.07 40.39 107.67 37.45C105.33 34.51 102.63 32.23 99.5696 30.61C96.5696 28.93 93.2696 28.09 89.6696 28.09C86.1296 28.09 82.9496 28.93 80.1296 30.61C77.3696 32.23 75.1796 34.51 73.5596 37.45C71.9996 40.39 71.2196 43.78 71.2196 47.62ZM132.024 73V22.33H140.214V69.22L137.064 68.77L175.854 22.33H186.564V73H178.374V25.66L181.614 26.2L142.554 73H132.024ZM158.754 16.75C153.834 16.75 149.844 15.49 146.784 12.97C143.784 10.39 141.954 6.72999 141.294 1.98999H148.314C148.854 4.92999 150.024 7.20999 151.824 8.82999C153.684 10.39 155.994 11.17 158.754 11.17C161.574 11.17 163.884 10.39 165.684 8.82999C167.484 7.20999 168.654 4.92999 169.194 1.98999H176.214C175.614 6.72999 173.784 10.39 170.724 12.97C167.664 15.49 163.674 16.75 158.754 16.75ZM213.731 25.12H222.011V73H213.731V25.12ZM191.771 22.33H243.971V29.08H191.771V22.33ZM273.331 74.17C267.391 74.17 262.141 73.06 257.581 70.84C253.081 68.62 249.571 65.5 247.051 61.48C244.531 57.46 243.271 52.84 243.271 47.62C243.271 42.34 244.531 37.72 247.051 33.76C249.571 29.8 253.081 26.71 257.581 24.49C262.141 22.27 267.391 21.16 273.331 21.16C279.331 21.16 284.581 22.27 289.081 24.49C293.581 26.71 297.091 29.8 299.611 33.76C302.191 37.72 303.481 42.34 303.481 47.62C303.481 52.84 302.191 57.46 299.611 61.48C297.091 65.5 293.581 68.62 289.081 70.84C284.581 73.06 279.331 74.17 273.331 74.17ZM273.331 67.24C277.771 67.24 281.611 66.46 284.851 64.9C288.091 63.28 290.581 61 292.321 58.06C294.121 55.12 295.021 51.64 295.021 47.62C295.021 43.66 294.121 40.21 292.321 37.27C290.581 34.33 288.091 32.05 284.851 30.43C281.611 28.81 277.771 28 273.331 28C268.951 28 265.111 28.81 261.811 30.43C258.571 32.05 256.081 34.33 254.341 37.27C252.601 40.21 251.731 43.66 251.731 47.62C251.731 51.64 252.601 55.12 254.341 58.06C256.081 61 258.571 63.28 261.811 64.9C265.111 66.46 268.951 67.24 273.331 67.24ZM310.051 73L312.391 47.62L310.051 22.33H344.431C349.351 22.33 353.161 23.47 355.861 25.75C358.621 27.97 360.001 31.12 360.001 35.2C360.001 38.92 358.621 41.89 355.861 44.11C353.161 46.27 349.411 47.53 344.611 47.89L345.421 46.18C351.181 46.24 355.591 47.41 358.651 49.69C361.711 51.91 363.241 55.09 363.241 59.23C363.241 63.55 361.681 66.94 358.561 69.4C355.501 71.8 351.211 73 345.691 73H310.051ZM318.151 70.57L315.001 66.7H344.341C347.881 66.7 350.491 66.01 352.171 64.63C353.911 63.25 354.781 61.27 354.781 58.69C354.781 56.05 353.731 53.98 351.631 52.48C349.591 50.98 346.381 50.23 342.001 50.23H316.981V44.29H341.461C344.761 44.29 347.251 43.54 348.931 42.04C350.671 40.54 351.541 38.56 351.541 36.1C351.541 33.76 350.761 31.93 349.201 30.61C347.701 29.23 345.361 28.54 342.181 28.54H315.091L318.151 24.76L320.401 47.62L318.151 70.57ZM393.094 22.33H401.284V73H393.094V22.33ZM436.654 22.33H444.934V73H436.654V22.33ZM397.684 44.02H440.524V50.77H397.684V44.02ZM503.759 73L501.959 53.83L504.209 47.62L501.959 41.5L503.759 22.33H512.219L509.879 47.62L512.219 73H503.759ZM506.999 47.62C505.679 52.9 503.639 57.55 500.879 61.57C498.179 65.53 494.879 68.62 490.979 70.84C487.139 73.06 482.879 74.17 478.199 74.17C473.219 74.17 468.809 73.06 464.969 70.84C461.129 68.56 458.099 65.44 455.879 61.48C453.719 57.46 452.639 52.84 452.639 47.62C452.639 42.34 453.719 37.72 455.879 33.76C458.099 29.8 461.129 26.71 464.969 24.49C468.809 22.27 473.219 21.16 478.199 21.16C482.879 21.16 487.139 22.27 490.979 24.49C494.879 26.71 498.209 29.8 500.969 33.76C503.729 37.72 505.739 42.34 506.999 47.62ZM461.099 47.62C461.099 51.46 461.879 54.85 463.439 57.79C465.059 60.73 467.249 63.04 470.009 64.72C472.829 66.34 476.009 67.15 479.549 67.15C483.149 67.15 486.449 66.34 489.449 64.72C492.509 63.04 495.209 60.73 497.549 57.79C499.949 54.85 501.899 51.46 503.399 47.62C501.899 43.78 499.949 40.39 497.549 37.45C495.209 34.51 492.509 32.23 489.449 30.61C486.449 28.93 483.149 28.09 479.549 28.09C476.009 28.09 472.829 28.93 470.009 30.61C467.249 32.23 465.059 34.51 463.439 37.45C461.879 40.39 461.099 43.78 461.099 47.62ZM606.147 69.13H602.637L621.717 22.33H630.177L609.027 73H600.567L581.397 25.84H585.267L565.827 73H557.367L536.217 22.33H544.767L563.937 69.13H560.247L579.057 22.33H587.607L606.147 69.13ZM660.391 74.17C654.571 74.17 649.411 73.06 644.911 70.84C640.471 68.56 636.961 65.44 634.381 61.48C631.861 57.46 630.601 52.84 630.601 47.62C630.601 42.34 631.801 37.72 634.201 33.76C636.601 29.8 639.931 26.71 644.191 24.49C648.451 22.27 653.341 21.16 658.861 21.16C664.321 21.16 669.091 22.36 673.171 24.76C677.251 27.16 680.401 30.55 682.621 34.93C684.901 39.25 686.041 44.29 686.041 50.05H636.901V43.48H682.531L677.671 46.45C677.491 42.67 676.591 39.4 674.971 36.64C673.351 33.88 671.161 31.75 668.401 30.25C665.641 28.75 662.431 28 658.771 28C654.811 28 651.361 28.81 648.421 30.43C645.481 31.99 643.171 34.21 641.491 37.09C639.871 39.97 639.061 43.36 639.061 47.26C639.061 51.34 639.991 54.88 641.851 57.88C643.711 60.88 646.321 63.19 649.681 64.81C653.041 66.43 657.001 67.24 661.561 67.24C665.701 67.24 669.751 66.55 673.711 65.17C677.731 63.79 681.331 61.9 684.511 59.5V65.98C681.391 68.5 677.671 70.51 673.351 72.01C669.031 73.45 664.711 74.17 660.391 74.17ZM693.627 3.69999H701.907V41.14L700.377 43.75V51.4L701.907 54.91V73H693.627V3.69999ZM697.857 47.62C699.177 42.34 701.187 37.72 703.887 33.76C706.647 29.8 709.947 26.71 713.787 24.49C717.687 22.27 721.977 21.16 726.657 21.16C731.637 21.16 736.047 22.27 739.887 24.49C743.727 26.71 746.727 29.8 748.887 33.76C751.107 37.72 752.217 42.34 752.217 47.62C752.217 52.84 751.107 57.46 748.887 61.48C746.727 65.44 743.727 68.56 739.887 70.84C736.047 73.06 731.637 74.17 726.657 74.17C721.977 74.17 717.687 73.06 713.787 70.84C709.947 68.62 706.647 65.53 703.887 61.57C701.187 57.55 699.177 52.9 697.857 47.62ZM743.757 47.62C743.757 43.78 742.947 40.39 741.327 37.45C739.767 34.51 737.577 32.23 734.757 30.61C731.997 28.93 728.847 28.09 725.307 28.09C721.707 28.09 718.377 28.93 715.317 30.61C712.317 32.23 709.647 34.51 707.307 37.45C704.967 40.39 703.017 43.78 701.457 47.62C703.017 51.46 704.967 54.85 707.307 57.79C709.647 60.73 712.317 63.04 715.317 64.72C718.377 66.34 721.707 67.15 725.307 67.15C728.847 67.15 731.997 66.34 734.757 64.72C737.577 63.04 739.767 60.73 741.327 57.79C742.947 54.85 743.757 51.46 743.757 47.62ZM788.286 9.27999C783.846 9.27999 780.486 10.24 778.206 12.16C775.986 14.02 774.876 17.26 774.876 21.88V73H766.596V23.23C766.596 19.27 767.316 15.73 768.756 12.61C770.196 9.48999 772.446 7.02999 775.506 5.22999C778.566 3.42999 782.556 2.52999 787.476 2.52999C789.876 2.52999 791.976 2.76999 793.776 3.24999C795.636 3.66999 797.376 4.20999 798.996 4.86999V11.8C797.376 10.9 795.696 10.27 793.956 9.90999C792.276 9.48999 790.386 9.27999 788.286 9.27999ZM755.526 32.14V25.39H798.906V32.14H755.526ZM808.716 3.69999H816.996V73H808.716V3.69999ZM854.798 74.17C848.858 74.17 843.608 73.06 839.048 70.84C834.548 68.62 831.038 65.5 828.518 61.48C825.998 57.46 824.738 52.84 824.738 47.62C824.738 42.34 825.998 37.72 828.518 33.76C831.038 29.8 834.548 26.71 839.048 24.49C843.608 22.27 848.858 21.16 854.798 21.16C860.798 21.16 866.048 22.27 870.548 24.49C875.048 26.71 878.558 29.8 881.078 33.76C883.658 37.72 884.948 42.34 884.948 47.62C884.948 52.84 883.658 57.46 881.078 61.48C878.558 65.5 875.048 68.62 870.548 70.84C866.048 73.06 860.798 74.17 854.798 74.17ZM854.798 67.24C859.238 67.24 863.078 66.46 866.318 64.9C869.558 63.28 872.048 61 873.788 58.06C875.588 55.12 876.488 51.64 876.488 47.62C876.488 43.66 875.588 40.21 873.788 37.27C872.048 34.33 869.558 32.05 866.318 30.43C863.078 28.81 859.238 28 854.798 28C850.418 28 846.578 28.81 843.278 30.43C840.038 32.05 837.548 34.33 835.808 37.27C834.068 40.21 833.198 43.66 833.198 47.62C833.198 51.64 834.068 55.12 835.808 58.06C837.548 61 840.038 63.28 843.278 64.9C846.578 66.46 850.418 67.24 854.798 67.24ZM955.196 69.13H951.686L970.766 22.33H979.226L958.076 73H949.616L930.446 25.84H934.316L914.876 73H906.416L885.266 22.33H893.816L912.986 69.13H909.296L928.106 22.33H936.656L955.196 69.13Z" stroke="#2F2F31" stroke-width="2" mask="url(#path-1-outside-1_820_87)"/>
</svg>
